<svg width="19" height="19" fill="none" xmlns="http://www.w3.org/2000/svg"><path d="M9.087 1.692c2.454 0 2.722 0 3.68.038.882.038 1.38.192 1.688.307.421.153.728.345 1.035.69.306.307.498.613.69 1.035.115.307.268.805.306 1.687.039.959.039 1.265.039 3.68 0 2.416 0 2.723-.038 3.681-.039.882-.192 1.38-.307 1.687a2.353 2.353 0 01-.69 1.036c-.307.306-.614.498-1.036.69-.306.115-.805.268-1.687.306-.958.039-1.265.039-3.68.039-2.454 0-2.722 0-3.681-.039-.882-.038-1.38-.191-1.687-.306a2.353 2.353 0 01-1.035-.69c-.307-.307-.499-.614-.69-1.036-.115-.306-.269-.805-.307-1.687-.038-.958-.038-1.265-.038-3.68 0-2.416 0-2.722.038-3.681.038-.882.192-1.38.307-1.687a2.35 2.35 0 01.69-1.035c.345-.307.613-.499 1.035-.69.307-.115.805-.269 1.687-.307.959-.038 1.227-.038 3.68-.038zm0-1.649c-2.492 0-2.8 0-3.758.038-.958.039-1.648.192-2.223.422a4.295 4.295 0 00-1.61 1.035C.995 2.037.69 2.573.46 3.148.23 3.725.077 4.376.038 5.373 0 6.331 0 6.638 0 9.13s0 2.799.038 3.757c.039.959.192 1.649.422 2.224.23.613.537 1.112 1.035 1.61.499.499 1.035.805 1.61 1.035.576.23 1.228.384 2.224.422.959.038 1.266.038 3.758.038s2.799 0 3.757-.038c.959-.038 1.649-.192 2.224-.422a4.294 4.294 0 001.61-1.035c.499-.498.805-1.035 1.035-1.61.23-.575.384-1.227.422-2.224.038-.958.038-1.265.038-3.757s0-2.8-.038-3.758c-.038-.958-.192-1.648-.422-2.223a4.293 4.293 0 00-1.035-1.61c-.498-.5-1.035-.806-1.61-1.036-.575-.23-1.227-.383-2.224-.422C11.886.043 11.58.043 9.087.043z" fill="#fff"/><path d="M9.088 4.49c-2.57 0-4.678 2.11-4.678 4.678s2.109 4.677 4.678 4.677 4.677-2.108 4.677-4.677c0-2.569-2.108-4.678-4.677-4.678zm0 7.707a3.035 3.035 0 01-3.03-3.03 3.035 3.035 0 013.03-3.028 3.035 3.035 0 013.029 3.029 3.01 3.01 0 01-3.03 3.029zm4.868-6.787a1.112 1.112 0 100-2.223 1.112 1.112 0 000 2.224z" fill="#fff"/></svg>