<svg xmlns="http://www.w3.org/2000/svg" width="25" height="24.565" viewBox="0 0 6.615 6.499"><path d="M1.037 0A1.04 1.04 0 000 1.035v2.888c0 .57.468 1.035 1.037 1.035h.558L1.098 6.5l2.59-1.54h1.891a1.04 1.04 0 001.036-1.036V1.035C6.615.465 6.149 0 5.579 0zm0 .547h4.542a.48.48 0 01.488.488v2.888a.48.48 0 01-.488.488H3.536l-1.473.877.283-.877H1.037a.48.48 0 01-.488-.488V1.035a.48.48 0 01.488-.488z" style="line-height:normal;font-variant-ligatures:normal;font-variant-position:normal;font-variant-caps:normal;font-variant-numeric:normal;font-variant-alternates:normal;font-feature-settings:normal;text-indent:0;text-align:start;text-decoration-line:none;text-decoration-style:solid;text-decoration-color:#000;text-transform:none;text-orientation:mixed;white-space:normal;shape-padding:0;isolation:auto;mix-blend-mode:normal;solid-color:#000;solid-opacity:1" color="#000" font-weight="400" font-family="sans-serif" overflow="visible" fill="#fdd80f"/></svg>