<svg width="17" height="17" fill="none" xmlns="http://www.w3.org/2000/svg"><path d="M4.11 14.996H1.622A.622.622 0 011 14.373V3.178a.622.622 0 01.622-.622h13.685a.622.622 0 01.622.622v11.197a.622.622 0 01-.622.622h-2.488M1.311 6.599h14.307M4.421 4.11V1m8.087 3.11V1" stroke="#fff" stroke-linecap="round" stroke-linejoin="round"/><path d="M8.309 9.267a.168.168 0 01.311 0l.771 2.276a.155.155 0 00.156.106h2.488a.16.16 0 01.159.21.161.161 0 01-.06.082l-2.009 1.4a.16.16 0 00-.062.18l.771 2.27a.168.168 0 01-.255.181L8.57 14.566a.168.168 0 00-.199 0l-2.009 1.406a.168.168 0 01-.255-.18l.771-2.27a.162.162 0 00-.062-.181l-2.01-1.4a.162.162 0 01.1-.292h2.489a.156.156 0 00.155-.106l.759-2.276z" stroke="#9E4593" stroke-linecap="round" stroke-linejoin="round"/></svg>