<svg width="19" height="19" viewBox="0 0 19 19" fill="none" xmlns="http://www.w3.org/2000/svg">
<path d="M0.781337 6.06272H4.57707V18.2167H0.781337V6.06272ZM2.66003 0.00488281C3.88694 0.00488281 4.84545 1.00174 4.84545 2.19031C4.84545 3.41721 3.84859 4.37573 2.66003 4.37573C1.43313 4.37573 0.474609 3.37887 0.474609 2.19031C0.474609 0.963403 1.47147 0.00488281 2.66003 0.00488281Z" fill="white"/>
<path d="M6.95435 6.06258H10.5967V7.71123H10.6351C11.1335 6.75272 12.3604 5.75586 14.2008 5.75586C18.0348 5.75586 18.725 8.28635 18.725 11.5453V18.2166H14.9292V12.3121C14.9292 10.8935 14.8909 9.0915 12.9739 9.0915C11.0185 9.0915 10.7117 10.6251 10.7117 12.2354V18.2549H6.91602V6.06258H6.95435Z" fill="white"/>
</svg>
