<?xml version="1.0" encoding="UTF-8" standalone="no"?>
<svg
   xmlns:dc="http://purl.org/dc/elements/1.1/"
   xmlns:cc="http://creativecommons.org/ns#"
   xmlns:rdf="http://www.w3.org/1999/02/22-rdf-syntax-ns#"
   xmlns:svg="http://www.w3.org/2000/svg"
   xmlns="http://www.w3.org/2000/svg"
   width="6.6145835mm"
   height="6.4993601mm"
   viewBox="0 0 6.6145835 6.4993601"
   version="1.1"
   id="svg8">
  <defs
     id="defs2" />
  <metadata
     id="metadata5">
    <rdf:RDF>
      <cc:Work
         rdf:about="">
        <dc:format>image/svg+xml</dc:format>
        <dc:type
           rdf:resource="http://purl.org/dc/dcmitype/StillImage" />
        <dc:title></dc:title>
      </cc:Work>
    </rdf:RDF>
  </metadata>
  <g
     id="layer1"
     transform="translate(-0.01354993,-290.49986)">
    <path
       id="rect826"
       d="m 1.0505669,290.49986 c -0.56945056,0 -1.03701697,0.46577 -1.03701697,1.03523 v 2.88779 c 0,0.56945 0.4675704,1.03522 1.03701697,1.03522 h 0.5581167 l -0.496904,1.54112 2.5889415,-1.54112 h 1.8921958 c 0.5694464,0 1.0352166,-0.46577 1.0352165,-1.03522 v -2.88779 c 0,-0.56946 -0.465766,-1.03523 -1.0352165,-1.03523 z m 0,0.54732 h 4.54235 c 0.2753192,0 0.4879021,0.21259 0.487902,0.48791 v 2.88779 c 0,0.27534 -0.2125788,0.48791 -0.487902,0.48791 H 3.5494895 l -1.472708,0.87677 0.2826592,-0.87677 H 1.0505669 c -0.27532322,0 -0.48790212,-0.21257 -0.48790212,-0.48791 v -2.88779 c 0,-0.27532 0.21258291,-0.48791 0.48790212,-0.48791 z"
       style="color:#000000;font-style:normal;font-variant:normal;font-weight:normal;font-stretch:normal;font-size:medium;line-height:normal;font-family:sans-serif;font-variant-ligatures:normal;font-variant-position:normal;font-variant-caps:normal;font-variant-numeric:normal;font-variant-alternates:normal;font-feature-settings:normal;text-indent:0;text-align:start;text-decoration:none;text-decoration-line:none;text-decoration-style:solid;text-decoration-color:#000000;letter-spacing:normal;word-spacing:normal;text-transform:none;writing-mode:lr-tb;direction:ltr;text-orientation:mixed;dominant-baseline:auto;baseline-shift:baseline;text-anchor:start;white-space:normal;shape-padding:0;clip-rule:nonzero;display:inline;overflow:visible;visibility:visible;opacity:1;isolation:auto;mix-blend-mode:normal;color-interpolation:sRGB;color-interpolation-filters:linearRGB;solid-color:#000000;solid-opacity:1;vector-effect:none;fill:#fdd80f;fill-opacity:1;fill-rule:nonzero;stroke:none;stroke-width:0.5480231;stroke-linecap:round;stroke-linejoin:miter;stroke-miterlimit:4;stroke-dasharray:none;stroke-dashoffset:0;stroke-opacity:1;color-rendering:auto;image-rendering:auto;shape-rendering:auto;text-rendering:auto;enable-background:accumulate" />
  </g>
</svg>
