<svg width="19" height="16" viewBox="0 0 19 16" fill="none" xmlns="http://www.w3.org/2000/svg">
<path d="M18.3701 2.49414C17.6799 2.80087 16.9898 2.99257 16.223 3.06925C16.9898 2.60916 17.6032 1.88069 17.8716 0.998853C17.1432 1.4206 16.338 1.72732 15.4945 1.91903C14.8044 1.19055 13.8459 0.730469 12.7723 0.730469C10.7019 0.730469 9.01491 2.41746 9.01491 4.48786C9.01491 4.79458 9.05326 5.06297 9.12994 5.33136C6.02434 5.178 3.26381 3.6827 1.42345 1.4206C1.11672 1.95737 0.925018 2.60916 0.925018 3.2993C0.925018 4.60288 1.57681 5.7531 2.57367 6.4049C1.96022 6.36655 1.3851 6.21319 0.886675 5.94481V5.98315C0.886675 7.78517 2.19026 9.31879 3.87725 9.66386C3.57053 9.74054 3.22546 9.77889 2.88039 9.77889C2.65035 9.77889 2.42031 9.74054 2.19026 9.7022C2.65035 11.1975 4.03062 12.271 5.67927 12.3094C4.41402 13.3062 2.76538 13.9197 1.04004 13.9197C0.733316 13.9197 0.426588 13.9197 0.158203 13.8813C1.80686 14.9549 3.80057 15.5683 5.90932 15.5683C12.8107 15.5683 16.568 9.85557 16.568 4.90961C16.568 4.75625 16.568 4.60288 16.568 4.41118C17.2198 3.91275 17.8716 3.26095 18.3701 2.49414Z" fill="white"/>
</svg>
