<?xml version="1.0" encoding="utf-8"?>
<!-- Generator: Adobe Illustrator 22.1.0, SVG Export Plug-In . SVG Version: 6.00 Build 0)  -->
<svg version="1.1" id="Layer_1" xmlns="http://www.w3.org/2000/svg" xmlns:xlink="http://www.w3.org/1999/xlink" x="0px" y="0px"
	 viewBox="0 0 92.1 92.1" style="enable-background:new 0 0 92.1 92.1;" xml:space="preserve">
<style type="text/css">
	.st0{fill:url(#SVGID_1_);}
	.st1{fill:#FFFFFF;}
</style>
<title>Asset 9</title>
<g id="Layer_2_1_">
	<g id="full">
		
			<linearGradient id="SVGID_1_" gradientUnits="userSpaceOnUse" x1="46.05" y1="126" x2="46.05" y2="33.9" gradientTransform="matrix(1 0 0 -1 0 126)">
			<stop  offset="0" style="stop-color:#0CA5EA"/>
			<stop  offset="1.000000e-02" style="stop-color:#0DA4EA"/>
			<stop  offset="0.14" style="stop-color:#2C8CE6"/>
			<stop  offset="0.28" style="stop-color:#447AE3"/>
			<stop  offset="0.43" style="stop-color:#566DE1"/>
			<stop  offset="0.59" style="stop-color:#6065DF"/>
			<stop  offset="0.78" style="stop-color:#6363DF"/>
		</linearGradient>
		<path class="st0" d="M46,92.1C20.6,92.1,0,71.5,0,46S20.6,0,46.1,0s46,20.6,46,46.1c0,0,0,0,0,0C92,71.5,71.5,92.1,46,92.1z"/>
		<polygon class="st1" points="54,24.9 58.5,25 60.8,28.9 62.5,24.5 66.9,23.4 63.4,20.5 63.9,15.9 60.1,18.5 55.9,16.9 57,21.3 		
			"/>
		<polygon class="st1" points="75.3,40.8 74.4,38.8 73.2,40.7 70.9,40.9 72.4,42.6 71.9,44.8 74,43.8 76,44.9 75.8,42.7 77.6,41.3 
					"/>
		<polygon class="st1" points="76.2,30.8 76.7,28.4 74.3,28.2 58.1,41.7 		"/>
		<polygon class="st1" points="54,27.7 49.7,40 58.4,30.3 57,27.5 		"/>
		<polygon class="st1" points="48.1,12.7 46.7,10.8 44.9,12.3 44.1,33.4 		"/>
		<polygon class="st1" points="38.8,24.6 40,22.6 37.7,22.8 36.3,21 35.8,23.3 33.8,24.2 35.7,25.4 35.9,27.7 37.6,26.1 39.8,26.7 
					"/>
		<path class="st1" d="M35.3,32.5l-6.7,43.2L64.1,49L35.3,32.5z M36.8,51.8c0.3-1.2,1.6-2,2.8-1.6s2,1.6,1.6,2.8s-1.6,2-2.8,1.6
			c0,0,0,0,0,0C37.2,54.3,36.5,53,36.8,51.8z M36.4,64.9c-1.2-0.3-1.9-1.6-1.6-2.8s1.6-1.9,2.8-1.6c1.2,0.3,1.9,1.6,1.6,2.8
			C38.9,64.6,37.7,65.3,36.4,64.9C36.5,64.9,36.4,64.9,36.4,64.9z M48.4,52.7c-1.3-0.4-2-1.7-1.7-3s1.7-2,3-1.7c1.3,0.4,2,1.7,1.7,3
			C51.1,52.3,49.7,53,48.4,52.7L48.4,52.7z"/>
	</g>
</g>
</svg>
