<svg xmlns="http://www.w3.org/2000/svg" xmlns:xlink="http://www.w3.org/1999/xlink" viewBox="0 0 92.1 123.66"><defs><style>.cls-1{font-size:12px;font-family:OpenSans, Open Sans;}.cls-1,.cls-3{fill:#fff;}.cls-2{fill:url(#linear-gradient);}</style><linearGradient id="linear-gradient" x1="46.05" x2="46.05" y2="92.1" gradientUnits="userSpaceOnUse"><stop offset="0" stop-color="#0ca5ea"/><stop offset="0.01" stop-color="#0da4ea"/><stop offset="0.14" stop-color="#2c8ce6"/><stop offset="0.28" stop-color="#447ae3"/><stop offset="0.43" stop-color="#566de1"/><stop offset="0.59" stop-color="#6065df"/><stop offset="0.78" stop-color="#6363df"/></linearGradient></defs><title>Asset 9</title><g id="Layer_2" data-name="Layer 2"><g id="full"><text class="cls-1" transform="translate(19.07 120.41)">Celebrate</text><path class="cls-2" d="M46.05,92.1a46.05,46.05,0,1,1,46.05-46A46.1,46.1,0,0,1,46.05,92.1Z"/><polygon class="cls-3" points="54.02 24.89 58.51 25.02 60.8 28.89 62.49 24.54 66.89 23.35 63.45 20.53 63.88 15.92 60.06 18.53 55.92 16.87 57.01 21.3 54.02 24.89"/><polygon class="cls-3" points="75.29 40.82 74.41 38.77 73.23 40.72 70.9 40.93 72.45 42.57 71.89 44.75 74.02 43.81 76 44.94 75.78 42.73 77.56 41.25 75.29 40.82"/><polygon class="cls-3" points="76.17 30.76 76.7 28.43 74.32 28.17 58.13 41.65 76.17 30.76"/><polygon class="cls-3" points="53.97 27.7 49.69 39.96 58.36 30.29 57.04 27.51 53.97 27.7"/><polygon class="cls-3" points="48.11 12.7 46.73 10.75 44.95 12.34 44.14 33.39 48.11 12.7"/><polygon class="cls-3" points="38.82 24.57 39.96 22.59 37.74 22.82 36.27 21.03 35.84 23.31 33.79 24.18 35.74 25.36 35.95 27.69 37.59 26.14 39.76 26.71 38.82 24.57"/><path class="cls-3" d="M35.34,32.46,28.6,75.63,64.09,49.05ZM36.8,51.79a2.31,2.31,0,1,1,1.6,2.84A2.31,2.31,0,0,1,36.8,51.79Zm-.36,13.15a2.27,2.27,0,1,1,2.81-1.58A2.27,2.27,0,0,1,36.44,64.94Zm12-12.28a2.43,2.43,0,1,1,3-1.69A2.44,2.44,0,0,1,48.45,52.66Z"/></g></g></svg>