<?xml version="1.0" encoding="utf-8"?>
<!-- Generator: Adobe Illustrator 22.1.0, SVG Export Plug-In . SVG Version: 6.00 Build 0)  -->
<svg version="1.1" id="Layer_1" xmlns="http://www.w3.org/2000/svg" xmlns:xlink="http://www.w3.org/1999/xlink" x="0px" y="0px"
	 viewBox="0 0 92.1 92.1" style="enable-background:new 0 0 92.1 92.1;" xml:space="preserve">
<style type="text/css">
	.st0{fill:url(#SVGID_1_);}
	.st1{fill:#FFFFFF;}
</style>
<title>Asset 5</title>
<g id="Layer_2_1_">
	<g id="full">
		
			<linearGradient id="SVGID_1_" gradientUnits="userSpaceOnUse" x1="46.05" y1="33.9" x2="46.05" y2="126" gradientTransform="matrix(1 0 0 -1 0 126)">
			<stop  offset="1.000000e-02" style="stop-color:#F89337"/>
			<stop  offset="0.25" style="stop-color:#F9A72B"/>
			<stop  offset="0.74" style="stop-color:#FCCB17"/>
			<stop  offset="1" style="stop-color:#FDD80F"/>
		</linearGradient>
		<path class="st0" d="M46,92.1C20.6,92.1,0,71.5,0,46S20.6,0,46.1,0s46,20.6,46,46.1c0,0,0,0,0,0C92,71.5,71.5,92.1,46,92.1z"/>
		<path class="st1" d="M46,18.2c-10.8,0-19.5,8.7-19.5,19.4c0,2.1,0.3,4.2,1,6.3c0.9,2.6,2.2,5.1,3.9,7.3c3.1,3.8,5.2,8.3,6,13.1
			h17.4c0.8-4.8,2.9-9.4,6-13.1c1.7-2.2,3-4.6,3.9-7.3c3.4-10.2-2.1-21.2-12.3-24.7C50.3,18.6,48.2,18.2,46,18.2z"/>
		<rect x="37.2" y="66.4" class="st1" width="17.8" height="4.6"/>
		<path class="st1" d="M44.3,78.1h3.5c2.5,0,4.6-2.1,4.6-4.6c0,0,0,0,0,0H39.7C39.7,76,41.7,78,44.3,78.1
			C44.3,78.1,44.3,78.1,44.3,78.1z"/>
	</g>
</g>
</svg>
