<svg xmlns="http://www.w3.org/2000/svg" xmlns:xlink="http://www.w3.org/1999/xlink" viewBox="0 0 92.1 123.66"><defs><style>.cls-1{font-size:12px;font-family:OpenSans, Open Sans;}.cls-1,.cls-3{fill:#fff;}.cls-2{fill:url(#New_Gradient_Swatch_5);}</style><linearGradient id="New_Gradient_Swatch_5" x1="46.05" y1="92.1" x2="46.05" gradientUnits="userSpaceOnUse"><stop offset="0.01" stop-color="#f89337"/><stop offset="0.25" stop-color="#f9a72b"/><stop offset="0.74" stop-color="#fccb17"/><stop offset="1" stop-color="#fdd80f"/></linearGradient></defs><title>Asset 5</title><g id="Layer_2" data-name="Layer 2"><g id="full"><text class="cls-1" transform="translate(17.15 120.41)">Good Idea</text><path class="cls-2" d="M46.05,92.1a46.05,46.05,0,1,1,46.05-46A46.1,46.1,0,0,1,46.05,92.1Z"/><path class="cls-3" d="M46.05,18.23A19.48,19.48,0,0,0,27.52,43.91a24.93,24.93,0,0,0,3.85,7.25,27.22,27.22,0,0,1,6,13.13H54.74a27.22,27.22,0,0,1,6-13.13,24.93,24.93,0,0,0,3.85-7.25A19.48,19.48,0,0,0,46.05,18.23Z"/><rect class="cls-3" x="37.17" y="66.42" width="17.75" height="4.62"/><path class="cls-3" d="M44.28,78.05h3.54a4.61,4.61,0,0,0,4.61-4.62H39.67A4.61,4.61,0,0,0,44.28,78.05Z"/></g></g></svg>