<?xml version="1.0" encoding="utf-8"?>
<!-- Generator: Adobe Illustrator 22.1.0, SVG Export Plug-In . SVG Version: 6.00 Build 0)  -->
<svg version="1.1" id="Layer_1" xmlns="http://www.w3.org/2000/svg" xmlns:xlink="http://www.w3.org/1999/xlink" x="0px" y="0px"
	 viewBox="0 0 92.1 92.1" style="enable-background:new 0 0 92.1 92.1;" xml:space="preserve">
<style type="text/css">
	.st0{fill:url(#SVGID_1_);}
	.st1{fill:#FFFFFF;}
</style>
<title>Asset 3</title>
<g id="Layer_2_1_">
	<g id="full">
		
			<linearGradient id="SVGID_1_" gradientUnits="userSpaceOnUse" x1="46.05" y1="33.9" x2="46.05" y2="126" gradientTransform="matrix(1 0 0 -1 0 126)">
			<stop  offset="0" style="stop-color:#0CA5EA"/>
			<stop  offset="0.2" style="stop-color:#179DE9"/>
			<stop  offset="0.55" style="stop-color:#3586E5"/>
			<stop  offset="0.99" style="stop-color:#6363DF"/>
		</linearGradient>
		<path class="st0" d="M46,92.1C20.6,92.1,0,71.5,0,46S20.6,0,46.1,0s46,20.6,46,46.1c0,0,0,0,0,0C92,71.5,71.5,92.1,46,92.1z"/>
		<path class="st1" d="M66.9,26c-1,0-2,0.1-3,0.4c-1.2-5-6.3-8.1-11.3-6.8c-0.9,0.2-1.7,0.5-2.5,1c-4.1-3.7-10.4-3.4-14.1,0.7
			c-0.2,0.2-0.4,0.4-0.5,0.6c-4.4-2.6-10.2-1.1-12.8,3.3c-0.8,1.3-1.2,2.8-1.3,4.3c-4.7,2.2-6.7,7.8-4.5,12.4
			c1.5,3.3,4.9,5.4,8.5,5.4h16.7l-7.3,13c-0.1,0.1,0,0.3,0.1,0.4c0,0,0.1,0,0.1,0h8.7c0.1,0,0.3,0.1,0.3,0.3c0,0,0,0.1,0,0.1
			l-7.3,17.8c-0.1,0.2,0,0.4,0.2,0.5c0.1,0.1,0.3,0,0.4-0.1l21.4-23.5c0.1-0.1,0.1-0.3,0-0.4c0,0-0.1-0.1-0.2-0.1h-8.4
			c-0.1,0-0.2-0.2-0.2-0.3c0,0,0,0,0,0l5.2-7.6h11.7c5.9-0.2,10.5-5.1,10.4-11C77.1,30.7,72.6,26.2,66.9,26z M70,36.7
			C70,36.7,70,36.7,70,36.7c-1.8-0.3-1.8-3.4-1.8-3.4c0-0.7-0.7-1.3-1.4-1.3c-0.7,0-1.2,0.5-1.3,1.2c-0.1,1.5,0.3,3.1,1.2,4.4
			c-1,0.4-2,1-2.8,1.7c-0.6,0.5-0.6,1.3-0.1,1.9c0.3,0.3,0.6,0.4,1,0.4c0.3,0,0.6-0.1,0.9-0.3c2.3-2.1,5.6-2.6,8.5-1.4
			c-1.3,2.9-4.2,4.8-7.3,4.8H56.4c0.4-2,1.9-3.6,3.9-4.1c0.7-0.3,1-1.1,0.7-1.8c-0.3-0.6-0.9-0.9-1.6-0.8c-3.1,0.9-5.4,3.5-5.8,6.7
			h-15c-0.8-3,0.2-6.2,2.6-8.2c0.6-0.4,0.7-1.3,0.3-1.9c-0.4-0.6-1.3-0.7-1.9-0.3c0,0-0.1,0.1-0.1,0.1C38.7,35.1,38,36,37.4,37
			c-1.2-1-2.6-1.6-4.2-1.8c-0.7-0.1-1.4,0.4-1.5,1.1c-0.1,0.7,0.4,1.4,1.1,1.5c0,0,0.1,0,0.1,0c0,0,3.1,0.4,3.1,2.2c0,0,0,0,0,0.1
			c-0.4,1.5-0.4,3.1-0.1,4.6h-9.8c-1.1-1.9-1-4.2,0.4-5.9c0.5-0.6,0.3-1.4-0.2-1.9c-0.6-0.5-1.4-0.3-1.9,0.2c0,0-0.1,0.1-0.1,0.2
			c-1.5,2-1.9,4.6-1.2,7c-3.5-1.3-5.2-5.1-3.9-8.6c1.1-3,4.2-4.8,7.4-4.3c0.7,0.1,1.4-0.4,1.5-1.1s-0.4-1.4-1.1-1.5
			c-0.5-0.1-1-0.1-1.6-0.1c-0.4,0-0.8,0-1.2,0.1c0.6-3.1,3.4-5.4,6.6-5.4c1.2,0,2.4,0.3,3.4,0.9c-1,2.4-1,5.2,0,7.6
			c0.2,0.5,0.7,0.8,1.2,0.8c0.2,0,0.4,0,0.5-0.1c0.7-0.3,1-1.1,0.7-1.7c0,0,0,0,0,0c-0.4-0.9-0.5-1.8-0.5-2.8
			c0.1-4.1,3.6-7.2,7.6-7.1c3.9,0.1,6.9,3.2,7.1,7.1c-0.1,0.7,0.5,1.4,1.2,1.5c0.7,0.1,1.4-0.5,1.5-1.2c0-0.1,0-0.2,0-0.2
			c0-1.9-0.5-3.8-1.6-5.4c0.9-0.4,1.9-0.7,2.9-0.7c3.2,0,6,2.3,6.6,5.5c-0.7,0.4-1.4,0.9-2,1.5c-0.6,0.5-0.6,1.3-0.2,1.9
			s1.3,0.6,1.9,0.2c0,0,0.1-0.1,0.1-0.1c3.1-3.1,8.2-3.1,11.3,0c1.5,1.5,2.4,3.6,2.3,5.7c0,0.2,0,0.4,0,0.7
			C73.4,36.7,71.7,36.5,70,36.7L70,36.7z"/>
		<path class="st1" d="M55.3,33c-2.3,1-4.3,1-6.1,0.1c-3.8-1.9-5.2-7.7-5.2-7.8c-0.2-0.7-0.9-1.2-1.6-1c-0.7,0.2-1.2,0.9-1,1.6
			c0.1,0.3,1.6,6.7,6.3,9.4c2.1,2,0.9,4.8,0.8,5c-0.3,0.7,0,1.5,0.7,1.8c0.2,0.1,0.4,0.1,0.5,0.1c0.6,0,1.1-0.3,1.3-0.8
			c0.7-1.6,0.8-3.3,0.4-5c0.2,0,0.4,0,0.5,0c1.5,0,3-0.4,4.4-1c0.7-0.3,0.9-1.2,0.5-1.8C56.6,33.1,56,32.8,55.3,33L55.3,33z"/>
	</g>
</g>
</svg>
