<svg xmlns="http://www.w3.org/2000/svg" xmlns:xlink="http://www.w3.org/1999/xlink" viewBox="0 0 92.1 123.66"><defs><style>.cls-1{font-size:12px;font-family:OpenSans, Open Sans;}.cls-1,.cls-3{fill:#fff;}.cls-2{fill:url(#New_Gradient_Swatch_8);}</style><linearGradient id="New_Gradient_Swatch_8" x1="46.05" y1="92.1" x2="46.05" gradientUnits="userSpaceOnUse"><stop offset="0" stop-color="#0ca5ea"/><stop offset="0.2" stop-color="#179de9"/><stop offset="0.55" stop-color="#3586e5"/><stop offset="0.99" stop-color="#6363df"/></linearGradient></defs><title>Asset 3</title><g id="Layer_2" data-name="Layer 2"><g id="full"><text class="cls-1" transform="translate(19.99 120.41)">Insightful</text><path class="cls-2" d="M46.05,92.1a46.05,46.05,0,1,1,46.05-46A46.1,46.1,0,0,1,46.05,92.1Z"/><path class="cls-3" d="M66.93,26a10.8,10.8,0,0,0-3,.42,9.31,9.31,0,0,0-13.72-5.84A10,10,0,0,0,35.57,21.9,9.34,9.34,0,0,0,21.5,29.53a9.35,9.35,0,0,0,4,17.81H42.16l-7.28,13a.27.27,0,0,0,.24.4h8.7a.27.27,0,0,1,.25.37l-7.3,17.8a.39.39,0,0,0,.64.42L58.84,55.81a.27.27,0,0,0-.2-.45H50.2A.27.27,0,0,1,50,55l5.22-7.61H66.93a10.7,10.7,0,0,0,0-21.39Zm3.12,10.7a.15.15,0,0,0-.07,0c-1.73-.31-1.7-3.36-1.7-3.39a1.34,1.34,0,0,0-2.67-.09,7.52,7.52,0,0,0,1.18,4.37A10.47,10.47,0,0,0,64,39.32a1.34,1.34,0,0,0-.11,1.89,1.36,1.36,0,0,0,1,.44,1.31,1.31,0,0,0,.89-.34,8,8,0,0,1,8.49-1.4,8,8,0,0,1-7.32,4.76H56.42a5.21,5.21,0,0,1,3.91-4.13A1.34,1.34,0,0,0,59.5,38a8,8,0,0,0-5.78,6.68h-15a8,8,0,0,1,2.59-8.21,1.34,1.34,0,1,0-1.72-2.05,10.74,10.74,0,0,0-2.18,2.53,7.45,7.45,0,0,0-4.16-1.79,1.34,1.34,0,1,0-.3,2.66s3.06.4,3.12,2.16a.19.19,0,0,0,0,.07A10.64,10.64,0,0,0,36,44.67H26.25a5.27,5.27,0,0,1,.35-5.94,1.34,1.34,0,1,0-2.22-1.49,8,8,0,0,0-1.21,7A6.68,6.68,0,0,1,26.6,31.39a1.33,1.33,0,1,0,.45-2.63,9,9,0,0,0-1.56-.13,9.71,9.71,0,0,0-1.21.08,6.7,6.7,0,0,1,6.56-5.43,6.62,6.62,0,0,1,3.4.94,10,10,0,0,0,0,7.59,1.33,1.33,0,0,0,1.23.83,1.39,1.39,0,0,0,.52-.11,1.33,1.33,0,0,0,.72-1.74A7.23,7.23,0,0,1,36.18,28a7.36,7.36,0,0,1,14.71,0,1.34,1.34,0,1,0,2.67,0A10,10,0,0,0,52,22.61a6.6,6.6,0,0,1,2.9-.67,6.69,6.69,0,0,1,6.57,5.53,10.38,10.38,0,0,0-2,1.54,1.34,1.34,0,1,0,1.87,1.91A8,8,0,0,1,75,36.65c0,.22,0,.44,0,.65A10.64,10.64,0,0,0,70.05,36.65Z"/><path class="cls-3" d="M55.31,33.05c-2.34,1-4.33,1-6.08.13-3.81-1.95-5.18-7.7-5.2-7.76a1.33,1.33,0,1,0-2.6.6c.06.28,1.59,6.72,6.27,9.36,2.07,2,.88,4.83.82,5a1.34,1.34,0,0,0,.66,1.77,1.37,1.37,0,0,0,.55.12A1.33,1.33,0,0,0,51,41.46a8.13,8.13,0,0,0,.4-5,5.28,5.28,0,0,0,.55,0,11.49,11.49,0,0,0,4.44-1,1.34,1.34,0,0,0-1-2.47Z"/></g></g></svg>