<svg xmlns="http://www.w3.org/2000/svg" xmlns:xlink="http://www.w3.org/1999/xlink" viewBox="0 0 92.1 124.36"><defs><style>.cls-1{font-size:12px;font-family:OpenSans, Open Sans;}.cls-1,.cls-3{fill:#fff;}.cls-2{fill:url(#New_Gradient_Swatch_9);}</style><linearGradient id="New_Gradient_Swatch_9" x1="46.05" y1="92.1" x2="46.05" gradientUnits="userSpaceOnUse"><stop offset="0.01" stop-color="#e5018b"/><stop offset="0.24" stop-color="#ea2974"/><stop offset="0.59" stop-color="#f26253"/><stop offset="0.86" stop-color="#f6863f"/><stop offset="1" stop-color="#f89337"/></linearGradient></defs><title>Asset 1</title><g id="Layer_2" data-name="Layer 2"><g id="full"><text class="cls-1" transform="translate(34.9 121.11)">Like</text><path class="cls-2" d="M46.05,92.1a46.05,46.05,0,1,1,46.05-46A46.1,46.1,0,0,1,46.05,92.1Z"/><path class="cls-3" d="M69.13,44.55a5.27,5.27,0,0,0-1-10.39v0H53.86s2.79-19.64-6-19.64c-5.69,1.3-2.53,9-4.59,13.63-2.88,5.84-5.76,7.68-6.89,8.21a.86.86,0,0,0-.49.76V63.45a3.34,3.34,0,0,0,1.45,2.22,8.87,8.87,0,0,0,5.64,2H61.93a3.58,3.58,0,0,0,2.41-6.16,4.64,4.64,0,0,0,3-8h.2a4.53,4.53,0,0,0,4.42-4.62A4.63,4.63,0,0,0,69.13,44.55Z"/><rect class="cls-3" x="20.16" y="34.22" width="12.88" height="33.42" rx="1.67" ry="1.67"/></g></g></svg>