<svg xmlns="http://www.w3.org/2000/svg" xmlns:xlink="http://www.w3.org/1999/xlink" viewBox="0 0 92.1 123.66"><defs><style>.cls-1{font-size:12px;font-family:OpenSans, Open Sans;}.cls-1,.cls-3{fill:#fff;}.cls-2{fill:url(#New_Gradient_Swatch_2);}</style><linearGradient id="New_Gradient_Swatch_2" x1="46.05" y1="92.1" x2="46.05" gradientUnits="userSpaceOnUse"><stop offset="0.01" stop-color="#6363df"/><stop offset="0.26" stop-color="#8c44c5"/><stop offset="0.6" stop-color="#bc20a6"/><stop offset="0.85" stop-color="#da0992"/><stop offset="1" stop-color="#e5018b"/></linearGradient></defs><title>Asset 7</title><g id="Layer_2" data-name="Layer 2"><g id="full"><text class="cls-1" transform="translate(32.2 120.41)">Wow</text><path class="cls-2" d="M46.05,92.1a46.05,46.05,0,1,1,46.05-46A46.1,46.1,0,0,1,46.05,92.1Z"/><path class="cls-3" d="M46.05,16.66A29.39,29.39,0,1,0,75.44,46.05,29.39,29.39,0,0,0,46.05,16.66Zm-16,9.13a5.3,5.3,0,0,1,7.28-1.46.63.63,0,0,1,.14.94h0a.62.62,0,0,1-.81.12,4,4,0,0,0-5.55,1.11.61.61,0,0,1-.79.2h0A.64.64,0,0,1,30.05,25.79Zm3,13.62c-2-.31-3.32-2.76-2.9-5.45s2.4-4.63,4.43-4.31,3.32,2.76,2.9,5.45S35,39.73,33,39.41Zm13,29.4c-4.71,0-8.54-5.09-8.54-11.38s3.83-11.38,8.54-11.38,8.54,5.1,8.54,11.38S50.76,68.81,46.05,68.81Zm13-29.4c-2,.32-4-1.61-4.43-4.31s.88-5.14,2.9-5.45,4,1.61,4.43,4.31S61.1,39.1,59.08,39.41Zm2.72-12.7h0a.61.61,0,0,1-.79-.2,4,4,0,0,0-5.55-1.11.62.62,0,0,1-.81-.12h0a.63.63,0,0,1,.14-.94,5.3,5.3,0,0,1,7.28,1.46A.64.64,0,0,1,61.8,26.71Z"/></g></g></svg>