<?xml version="1.0" encoding="utf-8"?>
<!-- Generator: Adobe Illustrator 22.1.0, SVG Export Plug-In . SVG Version: 6.00 Build 0)  -->
<svg version="1.1" id="Layer_1" xmlns="http://www.w3.org/2000/svg" xmlns:xlink="http://www.w3.org/1999/xlink" x="0px" y="0px"
	 viewBox="0 0 92.1 92.1" style="enable-background:new 0 0 92.1 92.1;" xml:space="preserve">
<style type="text/css">
	.st0{fill:url(#SVGID_1_);}
	.st1{fill:#FFFFFF;}
</style>
<title>Asset 7</title>
<g id="Layer_2_1_">
	<g id="full">
		
			<linearGradient id="SVGID_1_" gradientUnits="userSpaceOnUse" x1="46.05" y1="33.9" x2="46.05" y2="126" gradientTransform="matrix(1 0 0 -1 0 126)">
			<stop  offset="1.000000e-02" style="stop-color:#6363DF"/>
			<stop  offset="0.26" style="stop-color:#8C44C5"/>
			<stop  offset="0.6" style="stop-color:#BC20A6"/>
			<stop  offset="0.85" style="stop-color:#DA0992"/>
			<stop  offset="1" style="stop-color:#E5018B"/>
		</linearGradient>
		<path class="st0" d="M46,92.1C20.6,92.1,0,71.5,0,46S20.6,0,46.1,0s46,20.6,46,46.1c0,0,0,0,0,0C92,71.5,71.5,92.1,46,92.1z"/>
		<path class="st1" d="M46,16.7c-16.2,0-29.4,13.2-29.4,29.4S29.8,75.4,46,75.4S75.4,62.3,75.4,46S62.3,16.7,46,16.7L46,16.7z
			 M30,25.8c1.6-2.4,4.9-3,7.3-1.5c0.3,0.2,0.4,0.6,0.2,0.9c0,0,0,0-0.1,0.1l0,0c-0.2,0.2-0.5,0.3-0.8,0.1c-1.8-1.2-4.3-0.7-5.5,1.1
			c0,0,0,0,0,0c-0.2,0.3-0.5,0.3-0.8,0.2l0,0C30,26.5,29.9,26.2,30,25.8C30,25.8,30,25.8,30,25.8z M33,39.4c-2-0.3-3.3-2.8-2.9-5.5
			s2.4-4.6,4.4-4.3s3.3,2.8,2.9,5.4S35,39.7,33,39.4L33,39.4z M46,68.8c-4.7,0-8.5-5.1-8.5-11.4S41.3,46,46,46s8.5,5.1,8.5,11.4
			S50.8,68.8,46,68.8z M59,39.4c-2,0.3-4-1.6-4.4-4.3s0.9-5.1,2.9-5.4s4,1.6,4.4,4.3S61.1,39.1,59,39.4L59,39.4z M61.8,26.7
			L61.8,26.7c-0.3,0.1-0.6,0.1-0.8-0.2c-1.2-1.8-3.7-2.3-5.5-1.1c0,0,0,0,0,0c-0.3,0.2-0.6,0.1-0.8-0.1l0,0
			c-0.2-0.3-0.2-0.7,0.1-0.9c0,0,0,0,0.1-0.1c2.4-1.6,5.7-0.9,7.3,1.5C62.2,26.1,62.1,26.5,61.8,26.7C61.8,26.7,61.8,26.7,61.8,26.7
			L61.8,26.7z"/>
	</g>
</g>
</svg>
