<svg width="19" height="19" viewBox="0 0 19 19" fill="none" xmlns="http://www.w3.org/2000/svg">
<path d="M9.08676 1.69162C11.5406 1.69162 11.809 1.69162 12.7675 1.72997C13.6493 1.76831 14.1477 1.92166 14.4545 2.03669C14.8762 2.19005 15.1829 2.38175 15.4897 2.72682C15.7964 3.03355 15.9881 3.34027 16.1798 3.76202C16.2948 4.06875 16.4482 4.56718 16.4865 5.44902C16.5249 6.40754 16.5249 6.71426 16.5249 9.12973C16.5249 11.5452 16.5249 11.8519 16.4865 12.8104C16.4482 13.6923 16.2948 14.1907 16.1798 14.4974C16.0264 14.9192 15.8347 15.2259 15.4897 15.5326C15.1829 15.8394 14.8762 16.0311 14.4545 16.2228C14.1477 16.3378 13.6493 16.4911 12.7675 16.5295C11.809 16.5678 11.5022 16.5678 9.08676 16.5678C6.63295 16.5678 6.36457 16.5678 5.40605 16.5295C4.52421 16.4911 4.02578 16.3378 3.71905 16.2228C3.2973 16.0694 2.99058 15.8777 2.68385 15.5326C2.37713 15.2259 2.18542 14.9192 1.99372 14.4974C1.8787 14.1907 1.72533 13.6923 1.68699 12.8104C1.64865 11.8519 1.64865 11.5452 1.64865 9.12973C1.64865 6.71426 1.64865 6.40754 1.68699 5.44902C1.72533 4.56718 1.8787 4.06875 1.99372 3.76202C2.14708 3.34027 2.33879 3.03355 2.68385 2.72682C3.02892 2.4201 3.2973 2.22839 3.71905 2.03669C4.02578 1.92166 4.52421 1.76831 5.40605 1.72997C6.36457 1.69162 6.63295 1.69162 9.08676 1.69162ZM9.08676 0.0429688C6.59461 0.0429688 6.28788 0.0429711 5.32936 0.0813118C4.37085 0.119653 3.68071 0.273015 3.1056 0.50306C2.49215 0.733104 1.99372 1.03983 1.49529 1.53826C0.99686 2.03669 0.690134 2.57346 0.460089 3.14857C0.230045 3.72368 0.0766817 4.37548 0.0383409 5.37234C1.45687e-07 6.33086 0 6.63758 0 9.12973C0 11.6219 1.45687e-07 11.9286 0.0383409 12.8871C0.0766817 13.8456 0.230045 14.5358 0.460089 15.1109C0.690134 15.7243 0.99686 16.2228 1.49529 16.7212C1.99372 17.2196 2.53049 17.5264 3.1056 17.7564C3.68071 17.9864 4.33251 18.1398 5.32936 18.1781C6.28788 18.2165 6.59461 18.2165 9.08676 18.2165C11.5789 18.2165 11.8856 18.2165 12.8442 18.1781C13.8027 18.1398 14.4928 17.9864 15.0679 17.7564C15.6814 17.5264 16.1798 17.2196 16.6782 16.7212C17.1767 16.2228 17.4834 15.686 17.7134 15.1109C17.9435 14.5358 18.0968 13.884 18.1352 12.8871C18.1735 11.9286 18.1735 11.6219 18.1735 9.12973C18.1735 6.63758 18.1735 6.33086 18.1352 5.37234C18.0968 4.41382 17.9435 3.72368 17.7134 3.14857C17.4834 2.53512 17.1767 2.03669 16.6782 1.53826C16.1798 1.03983 15.643 0.733104 15.0679 0.50306C14.4928 0.273015 13.841 0.119653 12.8442 0.0813118C11.8856 0.0429711 11.5789 0.0429688 9.08676 0.0429688Z" fill="white"/>
<path d="M9.08773 4.49023C6.5189 4.49023 4.41016 6.59897 4.41016 9.16781C4.41016 11.7366 6.5189 13.8454 9.08773 13.8454C11.6566 13.8454 13.7653 11.7366 13.7653 9.16781C13.7653 6.59897 11.6566 4.49023 9.08773 4.49023ZM9.08773 12.1967C7.40074 12.1967 6.05881 10.8165 6.05881 9.16781C6.05881 7.48081 7.43908 6.13889 9.08773 6.13889C10.7747 6.13889 12.1166 7.51915 12.1166 9.16781C12.1166 10.8548 10.7747 12.1967 9.08773 12.1967Z" fill="white"/>
<path d="M13.9556 5.41078C14.5697 5.41078 15.0675 4.91297 15.0675 4.2989C15.0675 3.68482 14.5697 3.18701 13.9556 3.18701C13.3416 3.18701 12.8438 3.68482 12.8438 4.2989C12.8438 4.91297 13.3416 5.41078 13.9556 5.41078Z" fill="white"/>
</svg>
