<svg width="15" height="18" viewBox="0 0 15 18" fill="none" xmlns="http://www.w3.org/2000/svg">
<path d="M7.34434 0C11.4007 0 14.6887 3.288 14.6887 7.34434C14.6887 10.4478 12.508 13.83 8.20306 17.527C7.96369 17.7326 7.6585 17.8456 7.34293 17.8453C7.02736 17.845 6.72237 17.7315 6.48336 17.5255L6.19862 17.2784C2.08429 13.6778 0 10.3785 0 7.34434C0 3.288 3.288 0 7.34434 0ZM7.34434 1.1299C5.69617 1.1299 4.1155 1.78463 2.95007 2.95007C1.78463 4.1155 1.1299 5.69617 1.1299 7.34434C1.1299 9.98228 3.04922 13.0217 6.94059 16.4265L7.22156 16.6698C7.25572 16.6991 7.29928 16.7153 7.34434 16.7153C7.3894 16.7153 7.43296 16.6991 7.46712 16.6698C11.5468 13.1656 13.5588 10.0448 13.5588 7.34434C13.5588 6.52825 13.398 5.72015 13.0857 4.96618C12.7734 4.21221 12.3157 3.52713 11.7386 2.95007C11.1615 2.373 10.4765 1.91525 9.7225 1.60294C8.96853 1.29064 8.16043 1.1299 7.34434 1.1299V1.1299ZM7.34434 4.51959C8.09351 4.51959 8.81199 4.8172 9.34174 5.34694C9.87148 5.87668 10.1691 6.59517 10.1691 7.34434C10.1691 8.09351 9.87148 8.81199 9.34174 9.34174C8.81199 9.87148 8.09351 10.1691 7.34434 10.1691C6.59517 10.1691 5.87668 9.87148 5.34694 9.34174C4.8172 8.81199 4.51959 8.09351 4.51959 7.34434C4.51959 6.59517 4.8172 5.87668 5.34694 5.34694C5.87668 4.8172 6.59517 4.51959 7.34434 4.51959V4.51959ZM7.34434 5.64949C6.89484 5.64949 6.46375 5.82806 6.1459 6.1459C5.82806 6.46375 5.64949 6.89484 5.64949 7.34434C5.64949 7.79384 5.82806 8.22493 6.1459 8.54278C6.46375 8.86062 6.89484 9.03919 7.34434 9.03919C7.79384 9.03919 8.22493 8.86062 8.54278 8.54278C8.86062 8.22493 9.03919 7.79384 9.03919 7.34434C9.03919 6.89484 8.86062 6.46375 8.54278 6.1459C8.22493 5.82806 7.79384 5.64949 7.34434 5.64949V5.64949Z" fill="white"/>
</svg>
