<svg width="35" height="30" fill="none" xmlns="http://www.w3.org/2000/svg"><path d="M1.124.037C.487.037 0 .524 0 1.161c0 .637.487 1.124 1.124 1.124h4.494c1.873 4.606 3.708 9.213 5.543 13.82l-1.685 4.082c-.15.337-.113.75.112 1.049.187.3.562.487.936.487h18.727c.6 0 1.123-.524 1.123-1.124 0-.599-.561-1.123-1.123-1.123H12.172l.974-2.322 18.052-1.424a1.161 1.161 0 001.012-.861l2.247-9.738c.15-.674-.412-1.386-1.086-1.386H8.614L7.416.712C7.266.3 6.816 0 6.367 0H1.124v.037zm8.39 5.993H31.91l-1.76 7.565-17.041 1.349L9.513 6.03zm4.718 16.48a3.756 3.756 0 00-3.745 3.745A3.756 3.756 0 0014.232 30a3.756 3.756 0 003.745-3.745 3.756 3.756 0 00-3.745-3.746zm11.236 0a3.756 3.756 0 00-3.745 3.745A3.756 3.756 0 0025.468 30a3.756 3.756 0 003.745-3.745 3.756 3.756 0 00-3.745-3.746zm-11.236 2.247c.824 0 1.498.674 1.498 1.498s-.674 1.498-1.498 1.498a1.502 1.502 0 01-1.498-1.498c0-.824.674-1.498 1.498-1.498zm11.236 0c.824 0 1.498.674 1.498 1.498s-.674 1.498-1.498 1.498a1.503 1.503 0 01-1.498-1.498c0-.824.674-1.498 1.498-1.498z" fill="#FFF"/></svg>