<svg width="17" height="17" viewBox="0 0 17 17" fill="none" xmlns="http://www.w3.org/2000/svg">
<path d="M8.49707 7C9.29272 7 10.0558 6.68393 10.6184 6.12132C11.181 5.55871 11.4971 4.79565 11.4971 4C11.4971 3.20435 11.181 2.44129 10.6184 1.87868C10.0558 1.31607 9.29272 1 8.49707 1C7.70142 1 6.93836 1.31607 6.37575 1.87868C5.81314 2.44129 5.49707 3.20435 5.49707 4C5.49707 4.79565 5.81314 5.55871 6.37575 6.12132C6.93836 6.68393 7.70142 7 8.49707 7Z" fill="#9E4593" stroke="white" stroke-linejoin="round"/>
<path d="M5.5 11.4999H4L1 15.9999H16L13 11.4999H11.5M8.5 6.99988V13.7499V6.99988Z" stroke="white" stroke-linecap="round" stroke-linejoin="round"/>
</svg>
