<svg width="17" height="17" viewBox="0 0 17 17" fill="none" xmlns="http://www.w3.org/2000/svg">
<path d="M4.11022 14.9956H1.62204C1.45707 14.9956 1.29885 14.93 1.18219 14.8134C1.06554 14.6967 1 14.5385 1 14.3735V3.17673C1 3.01175 1.06554 2.85354 1.18219 2.73688C1.29885 2.62022 1.45707 2.55469 1.62204 2.55469H15.307C15.472 2.55469 15.6302 2.62022 15.7469 2.73688C15.8635 2.85354 15.929 3.01175 15.929 3.17673V14.3735C15.929 14.5385 15.8635 14.6967 15.7469 14.8134C15.6302 14.93 15.472 14.9956 15.307 14.9956H12.8188" stroke="white" stroke-linecap="round" stroke-linejoin="round"/>
<path d="M1.31104 6.59863H15.618" stroke="white" stroke-linecap="round" stroke-linejoin="round"/>
<path d="M4.42114 4.11022V1" stroke="white" stroke-linecap="round" stroke-linejoin="round"/>
<path d="M12.5078 4.11022V1" stroke="white" stroke-linecap="round" stroke-linejoin="round"/>
<path d="M8.30903 9.26663C8.32164 9.23573 8.34316 9.20928 8.37086 9.19067C8.39856 9.17205 8.43117 9.16211 8.46455 9.16211C8.49792 9.16211 8.53053 9.17205 8.55823 9.19067C8.58593 9.20928 8.60745 9.23573 8.62006 9.26663L9.39139 11.5433C9.40221 11.5755 9.42327 11.6033 9.45135 11.6223C9.47943 11.6414 9.51299 11.6508 9.5469 11.6491H12.0351C12.0696 11.6481 12.1034 11.6583 12.1317 11.678C12.16 11.6977 12.1813 11.726 12.1924 11.7586C12.2035 11.7913 12.2039 11.8266 12.1935 11.8595C12.1831 11.8924 12.1625 11.9211 12.1346 11.9414L10.1254 13.341C10.0972 13.3606 10.076 13.3886 10.0649 13.4211C10.0537 13.4535 10.0531 13.4886 10.0632 13.5214L10.8345 15.7919C10.8425 15.8246 10.8405 15.859 10.8287 15.8905C10.8169 15.9221 10.7958 15.9493 10.7683 15.9688C10.7408 15.9882 10.7081 15.999 10.6745 15.9996C10.6408 16.0002 10.6077 15.9907 10.5795 15.9723L8.57029 14.5664C8.54145 14.5452 8.50658 14.5338 8.47077 14.5338C8.43496 14.5338 8.40008 14.5452 8.37124 14.5664L6.36204 15.9723C6.33384 15.9907 6.30075 16.0002 6.26707 15.9996C6.2334 15.999 6.20068 15.9882 6.17318 15.9688C6.14568 15.9493 6.12467 15.9221 6.11286 15.8905C6.10106 15.859 6.09902 15.8246 6.107 15.7919L6.87833 13.5214C6.88843 13.4886 6.88785 13.4535 6.87667 13.4211C6.86549 13.3886 6.84429 13.3606 6.81613 13.341L4.80693 11.9414C4.77906 11.9211 4.75841 11.8924 4.74801 11.8595C4.73761 11.8266 4.73799 11.7913 4.74911 11.7586C4.76022 11.726 4.78149 11.6977 4.8098 11.678C4.8381 11.6583 4.87197 11.6481 4.90646 11.6491H7.39463C7.42854 11.6508 7.4621 11.6414 7.49018 11.6223C7.51826 11.6033 7.53932 11.5755 7.55014 11.5433L8.30903 9.26663Z" stroke="#9E4593" stroke-linecap="round" stroke-linejoin="round"/>
</svg>
