<svg width="18" height="19" viewBox="0 0 18 19" fill="none" xmlns="http://www.w3.org/2000/svg">
<path d="M16.8973 0.273438H1.02419C0.487423 0.273438 0.0273438 0.695186 0.0273438 1.2703V17.1434C0.0273438 17.6801 0.449083 18.1402 1.02419 18.1402H9.57419V11.2389H7.2354V8.55504H9.57419V6.56132C9.57419 4.26088 10.9928 2.99563 13.0249 2.99563C14.0217 2.99563 14.8652 3.07231 15.0953 3.11065V5.52612H13.6766C12.5648 5.52612 12.3347 6.06289 12.3347 6.82971V8.55504H14.9802L14.6352 11.2389H12.3347V18.1402H16.8589C17.3957 18.1402 17.8558 17.7185 17.8558 17.1434V1.23196C17.8558 0.695186 17.434 0.273438 16.8973 0.273438Z" fill="white"/>
</svg>
