<svg xmlns="http://www.w3.org/2000/svg" height="26" width="26" fill="none"><path d="M25.558 5.202a9.447 9.447 0 01-2.96.793c1.057-.635 1.903-1.64 2.273-2.855a11.732 11.732 0 01-3.278 1.269c-.952-1.005-2.274-1.64-3.755-1.64a5.19 5.19 0 00-5.182 5.182c0 .423.053.793.159 1.163A14.628 14.628 0 012.187 3.721a5.254 5.254 0 00-.688 2.59c0 1.798.9 3.385 2.274 4.283-.846-.052-1.64-.264-2.327-.634v.053c0 2.485 1.798 4.6 4.125 5.075a5.766 5.766 0 01-1.375.159c-.317 0-.635-.053-.952-.106.635 2.062 2.538 3.542 4.812 3.595a10.427 10.427 0 01-6.398 2.22c-.423 0-.846 0-1.216-.052 2.273 1.48 5.023 2.326 7.931 2.326 9.518 0 14.7-7.877 14.7-14.698v-.687c.9-.687 1.798-1.586 2.485-2.643z" fill="#0ca5ea"/></svg>