<svg width="22" height="24" fill="none" xmlns="http://www.w3.org/2000/svg"><mask id="a" fill="#fff"><path d="M8.728 20.522h4.544v-1.16H8.728v1.16zM17.456 16c-.119-.116-.119-.464 0-.58.12-.116.36-.116.598 0l1.555 1.507c.12.117.12.348 0 .58-.12.116-.359.116-.598 0L17.456 16zm-13.39-.58c.119-.116.358-.116.597 0 .12.116.12.464 0 .58l-1.554 1.507c-.12.116-.479.116-.598 0-.12-.116-.12-.348 0-.58l1.554-1.507zM2.63 9.855c.24 0 .36.232.36.348 0 .232-.24.348-.36.348H.36c-.12.116-.359-.116-.359-.348 0-.232.24-.348.359-.348h2.27zm19.011 0c.24 0 .359.232.359.348 0 .232-.24.348-.359.348H19.37c-.24 0-.36-.232-.36-.348 0-.232.24-.348.36-.348h2.271zM5.74 4.522c.24.116.24.348 0 .464-.12.115-.478.115-.598 0L3.587 3.478c-.12-.116-.12-.348 0-.58.12-.115.478-.115.598 0l1.554 1.624zm11.12.464c-.12.115-.359.115-.598 0-.12-.116-.12-.348 0-.58l1.554-1.507c.12-.116.479-.116.598 0 .12.115.12.463 0 .58L16.86 4.986zm-5.5-2.435c0 .232-.24.348-.359.348-.24 0-.359-.116-.359-.348V.348c0-.116.12-.348.359-.348.24 0 .359.232.359.348V2.55zm.837 20.753c0 .116-.12.348-.12.464-.12.116-.239.232-.478.232h-1.196c-.12 0-.358-.116-.478-.232s-.24-.232-.24-.464h-.358c-.359 0-.717-.116-.956-.463-.24-.232-.36-.58-.36-.928v-3.014c0-1.855-.836-2.899-1.553-3.943-.837-1.043-1.674-2.086-1.674-3.941 0-1.624.717-3.13 1.793-4.29C7.652 5.68 9.206 4.985 11 4.985c1.793 0 3.348.696 4.424 1.74a5.944 5.944 0 011.793 4.29c0 1.855-.837 2.898-1.554 4.057-.717 1.044-1.554 2.087-1.554 3.943v3.014c0 .348-.12.696-.479.927-.239.232-.597.464-.956.464 0-.116-.478-.116-.478-.116zM7.054 14.61c.837 1.043 1.555 2.203 1.674 4.058h4.544c.12-1.855.956-2.899 1.674-4.058.717-1.044 1.434-1.971 1.434-3.595 0-1.39-.597-2.782-1.554-3.71-.956-.927-2.272-1.507-3.826-1.507-1.554 0-2.87.58-3.826 1.507-.957.928-1.554 2.32-1.554 3.71 0 1.624.717 2.551 1.434 3.595zm6.218 6.724H8.728v.58c0 .116.12.348.12.464.12.116.239.232.478.232h3.348c.12 0 .359-.116.478-.232.12-.116.24-.232.24-.464v-.58h-.12z"/></mask><path d="M8.728 20.522h4.544v-1.16H8.728v1.16zM17.456 16c-.119-.116-.119-.464 0-.58.12-.116.36-.116.598 0l1.555 1.507c.12.117.12.348 0 .58-.12.116-.359.116-.598 0L17.456 16zm-13.39-.58c.119-.116.358-.116.597 0 .12.116.12.464 0 .58l-1.554 1.507c-.12.116-.479.116-.598 0-.12-.116-.12-.348 0-.58l1.554-1.507zM2.63 9.855c.24 0 .36.232.36.348 0 .232-.24.348-.36.348H.36c-.12.116-.359-.116-.359-.348 0-.232.24-.348.359-.348h2.27zm19.011 0c.24 0 .359.232.359.348 0 .232-.24.348-.359.348H19.37c-.24 0-.36-.232-.36-.348 0-.232.24-.348.36-.348h2.271zM5.74 4.522c.24.116.24.348 0 .464-.12.115-.478.115-.598 0L3.587 3.478c-.12-.116-.12-.348 0-.58.12-.115.478-.115.598 0l1.554 1.624zm11.12.464c-.12.115-.359.115-.598 0-.12-.116-.12-.348 0-.58l1.554-1.507c.12-.116.479-.116.598 0 .12.115.12.463 0 .58L16.86 4.986zm-5.5-2.435c0 .232-.24.348-.359.348-.24 0-.359-.116-.359-.348V.348c0-.116.12-.348.359-.348.24 0 .359.232.359.348V2.55zm.837 20.753c0 .116-.12.348-.12.464-.12.116-.239.232-.478.232h-1.196c-.12 0-.358-.116-.478-.232s-.24-.232-.24-.464h-.358c-.359 0-.717-.116-.956-.463-.24-.232-.36-.58-.36-.928v-3.014c0-1.855-.836-2.899-1.553-3.943-.837-1.043-1.674-2.086-1.674-3.941 0-1.624.717-3.13 1.793-4.29C7.652 5.68 9.206 4.985 11 4.985c1.793 0 3.348.696 4.424 1.74a5.944 5.944 0 011.793 4.29c0 1.855-.837 2.898-1.554 4.057-.717 1.044-1.554 2.087-1.554 3.943v3.014c0 .348-.12.696-.479.927-.239.232-.597.464-.956.464 0-.116-.478-.116-.478-.116zM7.054 14.61c.837 1.043 1.555 2.203 1.674 4.058h4.544c.12-1.855.956-2.899 1.674-4.058.717-1.044 1.434-1.971 1.434-3.595 0-1.39-.597-2.782-1.554-3.71-.956-.927-2.272-1.507-3.826-1.507-1.554 0-2.87.58-3.826 1.507-.957.928-1.554 2.32-1.554 3.71 0 1.624.717 2.551 1.434 3.595zm6.218 6.724H8.728v.58c0 .116.12.348.12.464.12.116.239.232.478.232h3.348c.12 0 .359-.116.478-.232.12-.116.24-.232.24-.464v-.58h-.12z" fill="#FDD80F"/><path d="M8.728 20.522h-9v9h9v-9zm4.544 0v9h9v-9h-9zm0-1.16h9v-9h-9v9zm-4.544 0v-9h-9v9h9zM17.456 16l6.266-6.461L17.456 16zm.598-.58l6.266-6.46-1.038-1.007-1.301-.631-3.927 8.098zm1.555 1.507l-6.266 6.462 6.266-6.462zm0 .58l6.265 6.461 1.058-1.026.676-1.31-8-4.125zm-.598 0l-6.265 6.461 1.037 1.007 1.301.63 3.927-8.098zM4.663 15.42l6.265-6.46L9.89 7.952l-1.3-.631-3.927 8.098zm-1.554 2.087l6.265 6.461-6.265-6.46zm-.598-.58l-6.265-6.46-1.059 1.026-.675 1.31 7.999 4.124zM.359 10.551v-9h-3.647L-5.907 4.09.36 10.55zm5.38-6.03l-6.5 6.225 1.118 1.168 1.456.706 3.926-8.098zm0 .465L1.813-3.113l-1.301.63-1.038 1.007 6.265 6.462zM3.587 2.899l-6.265-6.462-1.059 1.027-.675 1.31 7.999 4.125zm.598 0l6.5-6.225-.115-.12-.12-.117L4.185 2.9zm12.674 2.087l6.265 6.46-6.265-6.46zm-.598 0l-6.265 6.46 1.037 1.007 1.301.63 3.927-8.097zm0-.58L9.996-2.055 8.937-1.03 8.262.28l7.999 4.125zm1.554-1.507L11.55-3.563 17.815 2.9zm.598.58l-6.265-6.462 6.265 6.461zm-6.217 19.825v-9h-9v9h9zm-.12.464l6.265 6.461 2.735-2.652v-3.809h-9zm-2.391-.464h9v-9h-9v9zm-1.315-.463l7.416-5.1-.508-.738-.643-.623-6.265 6.46zm-1.913-7.885l7.416-5.098-.188-.274-.208-.259-7.02 5.632zm.12-8.231L.31.264.14.428l-.162.174 6.597 6.123zm9.086 8.348l7.416 5.098.123-.178.114-.185-7.653-4.736zm-2.033 7.883l-4.886-7.558-.743.481-.636.616 6.265 6.461zm-.956.464h-9v9h9v-9zm-5.62-8.811l-7.416 5.098.188.274.208.259 7.02-5.631zm1.674 4.058l-8.981.578.543 8.422h8.438v-9zm4.544 0v9h8.438l.543-8.422-8.981-.578zm1.674-4.058l-7.417-5.1-.123.18-.114.184 7.654 4.736zm-6.218 6.724v-9h-9v9h9zm.12 1.044h-9v3.81l2.735 2.65 6.265-6.46zm4.543-1.044h9v-9h-9v9zm-4.663 8.189h4.544v-18H8.728v18zm13.544-9v-1.16h-18v1.16h18zm-9-10.16H8.728v18h4.544v-18zm-13.544 9v1.159h18v-1.158h-18zM23.722 9.54a8.724 8.724 0 012.3 3.794 8.403 8.403 0 010 4.754 8.723 8.723 0 01-2.3 3.794L11.192 8.96A9.276 9.276 0 008.755 13a9.598 9.598 0 000 5.421 9.27 9.27 0 002.435 4.041L23.721 9.54zm0 12.342a8.648 8.648 0 01-6.011 2.452 8.2 8.2 0 01-3.583-.814L21.98 7.322a9.8 9.8 0 00-4.27-.989c-1.614 0-4.267.442-6.52 2.626l12.53 12.922zm-11.933 0l1.554 1.508 12.531-12.923L24.32 8.96 11.789 21.881zm1.554 1.508a8.67 8.67 0 01-2.645-6.215 8.25 8.25 0 01.912-3.791l15.998 8.249a9.737 9.737 0 001.09-4.458c0-1.759-.527-4.48-2.824-6.708L13.344 23.39zm0-12.343a8.648 8.648 0 016.012-2.452c1.485 0 2.703.389 3.582.815l-7.853 16.197a9.8 9.8 0 004.27.988c1.615 0 4.267-.441 6.52-2.626l-12.53-12.922zm11.933 0L23.722 9.54l-12.53 12.92 1.554 1.507 12.53-12.922zM10.331 21.881a8.648 8.648 0 01-6.012 2.452 8.2 8.2 0 01-3.582-.814L8.59 7.322a9.8 9.8 0 00-4.27-.989c-1.615 0-4.267.442-6.52 2.626l12.53 12.922zm-11.933 0a8.724 8.724 0 01-2.3-3.794 8.402 8.402 0 010-4.754 8.724 8.724 0 012.3-3.794l12.53 12.922a9.276 9.276 0 002.435-4.04 9.598 9.598 0 000-5.42 9.276 9.276 0 00-2.435-4.042l-12.53 12.922zm0-12.342l-1.555 1.507L9.374 23.968l1.554-1.507L-1.602 9.54zm-1.555 1.507A8.711 8.711 0 01.58 8.9a8.347 8.347 0 014.462 0c.72.2 2.27.726 3.735 2.147l-12.53 12.922a9.289 9.289 0 003.989 2.278 9.651 9.651 0 002.575.348c.737 0 1.62-.084 2.575-.348a9.289 9.289 0 003.989-2.278l-12.53-12.922zm11.933 0a8.67 8.67 0 012.645 6.215 8.263 8.263 0 01-.91 3.791l-16-8.25a9.738 9.738 0 00-1.09 4.459c0 1.759.528 4.48 2.825 6.707l12.53-12.922zm0 12.343l1.555-1.508L-2.2 8.96l-1.554 1.507L8.776 23.39zM2.63 18.855c-3.113 0-5.404-1.604-6.673-3.142a8.633 8.633 0 01-1.968-5.51h18c0-2.508-1.006-4.561-2.147-5.945C8.453 2.575 5.982.855 2.63.855v18zm-8.64-8.652c0-3.346 1.825-5.67 3.348-6.85A8.606 8.606 0 012.63 1.55v18a9.396 9.396 0 005.741-1.976c1.672-1.297 3.618-3.794 3.618-7.372h-18zM2.63 1.55H.36v18h2.27v-18zm-8.537 2.54c2.51-2.435 5.752-2.843 8.184-2.281A8.743 8.743 0 016.4 4.046 8.556 8.556 0 019 10.203H-9c0 2.96 1.363 5.305 2.87 6.765a9.257 9.257 0 004.358 2.38c2.51.579 5.826.156 8.396-2.336L-5.906 4.09zM9 10.203c0 3.346-1.826 5.669-3.349 6.85a8.607 8.607 0 01-5.292 1.802v-18c-2.35 0-4.337.886-5.741 1.976C-7.054 4.128-9 6.625-9 10.203H9zM.359 18.855H2.63v-18H.36v18zm21.282 0c-3.113 0-5.404-1.604-6.673-3.142A8.632 8.632 0 0113 10.203h18c0-2.508-1.006-4.561-2.147-5.945C27.464 2.575 24.993.855 21.64.855v18zM13 10.203c0-3.346 1.826-5.67 3.349-6.85a8.606 8.606 0 015.292-1.802v18c2.35 0 4.337-.887 5.741-1.976C29.054 16.278 31 13.78 31 10.203H13zm8.641-8.652H19.37v18h2.271v-18zm-2.271 0c3.113 0 5.404 1.604 6.673 3.142a8.632 8.632 0 011.968 5.51h-18c0 2.508 1.006 4.561 2.147 5.945 1.389 1.683 3.86 3.403 7.212 3.403v-18zm8.64 8.652c0 3.346-1.826 5.669-3.348 6.85a8.607 8.607 0 01-5.292 1.802v-18a9.39 9.39 0 00-5.741 1.976c-1.672 1.297-3.618 3.794-3.618 7.372h18zm-8.64 8.652h2.271v-18H19.37v18zM1.813 12.62c-1.845-.895-4.895-3.399-4.895-7.866 0-4.468 3.05-6.972 4.895-7.867l7.853 16.197c2.084-1.01 5.252-3.689 5.252-8.33 0-4.642-3.168-7.32-5.252-8.33L1.813 12.62zM-.527-1.476A8.711 8.711 0 013.21-3.623a8.347 8.347 0 014.462 0c.72.2 2.27.726 3.736 2.147L-1.124 11.447a9.289 9.289 0 003.99 2.277 9.655 9.655 0 005.15 0 9.288 9.288 0 003.988-2.277L-.526-1.476zm11.934 0L9.852-2.983-2.678 9.94l1.554 1.508 12.53-12.923zM9.852-2.983a8.67 8.67 0 012.645 6.215 8.264 8.264 0 01-.91 3.791l-16-8.25a9.737 9.737 0 00-1.09 4.459c0 1.759.528 4.48 2.825 6.707L9.852-2.983zm0 12.343a8.71 8.71 0 01-3.735 2.147 8.345 8.345 0 01-4.462 0A8.71 8.71 0 01-2.081 9.36L10.45-3.563A9.29 9.29 0 006.46-5.84a9.653 9.653 0 00-5.149 0 9.29 9.29 0 00-3.99 2.277L9.853 9.36zm-12.168-.237l1.555 1.623 13-12.449-1.554-1.623-13 12.45zm12.91-10.599a8.648 8.648 0 016.01-2.452c1.486 0 2.704.389 3.583.815l-7.853 16.197a9.8 9.8 0 004.27.989c1.615 0 4.267-.442 6.52-2.626L10.594-1.476zm11.932 0a8.67 8.67 0 012.645 6.215 8.264 8.264 0 01-.91 3.791L8.26.281a9.737 9.737 0 00-1.09 4.458c0 1.76.528 4.48 2.825 6.708l12.53-12.923zm0 12.343l1.555-1.507L11.55-3.563 9.996-2.055l12.53 12.922zm1.555-1.507a8.71 8.71 0 01-3.736 2.147 8.345 8.345 0 01-4.462 0 8.71 8.71 0 01-3.735-2.147l12.53-12.923A9.29 9.29 0 0020.69-5.84a9.654 9.654 0 00-5.15 0 9.29 9.29 0 00-3.99 2.277L24.082 9.36zm-11.933 0a8.724 8.724 0 01-2.3-3.795 8.402 8.402 0 010-4.754 8.724 8.724 0 012.3-3.794L24.678 9.94a9.277 9.277 0 002.435-4.04 9.598 9.598 0 000-5.42 9.277 9.277 0 00-2.435-4.042L12.148 9.36zm0-12.343l-1.555 1.507 12.531 12.923 1.554-1.508-12.53-12.922zm-9.79 5.534c0-3.346 1.827-5.67 3.35-6.85A8.606 8.606 0 0111-6.102v18c2.35 0 4.336-.887 5.74-1.976 1.673-1.297 3.619-3.795 3.619-7.372h-18zM11-6.101c1.2 0 3.765.288 5.996 2.451a8.661 8.661 0 012.645 6.2h-18c0 1.576.422 4.393 2.825 6.723 2.35 2.28 5.095 2.626 6.534 2.626v-18zm8.641 8.652V.348h-18V2.55h18zm0-2.203a8.632 8.632 0 01-1.968 5.51C16.404 7.396 14.113 9 11 9V-9C7.648-9 5.177-7.28 3.789-5.597 2.647-4.214 1.64-2.16 1.64.348h18zM11 9C7.887 9 5.596 7.396 4.327 5.858A8.632 8.632 0 012.359.348h18c0-2.508-1.006-4.562-2.148-5.945C16.823-7.28 14.352-9 11-9V9zM2.359.348V2.55h18V.348h-18zm.837 22.956a8.784 8.784 0 01.145-1.59 8.36 8.36 0 01.268-1.056l.016-.048-.06.177a9.637 9.637 0 00-.435 1.99 9.212 9.212 0 00-.054.991h18a8.77 8.77 0 01-.317 2.332c-.043.153-.08.267-.096.315l-.016.047.06-.177a9.608 9.608 0 00.435-1.99 9.21 9.21 0 00.054-.99h-18zm2.615-5.997c-.175.17.52-.562 1.545-1.159A8.457 8.457 0 0111.598 15v18c4.088 0 6.49-2.525 6.743-2.77L5.811 17.306zM11.598 15h-1.196v18h1.196V15zm-1.196 0c1.243 0 2.176.266 2.545.38a8.052 8.052 0 013.242 1.927L3.66 30.229a9.95 9.95 0 002.578 1.797c.369.179 1.985.974 4.165.974V15zm5.787 2.307c-.185-.18.587.508 1.224 1.537a8.498 8.498 0 011.272 4.46h-18c0 4.3 2.799 6.756 2.974 6.925l12.53-12.922zm-6.504-3.003h-.359v18h.359v-18zm-.359 0c.76 0 1.874.12 3.107.663a7.984 7.984 0 013.353 2.775L.953 27.939c2.414 3.511 6.048 4.365 8.373 4.365v-18zm5.309 2.075a7.713 7.713 0 012.376 5.534h-18c0 2.214.736 5.103 3.093 7.389l12.53-12.922zm2.376 5.534v-.928h-18v.928h18zm0-.928v-1.97h-18v1.97h18zm-9-1.97h9v-.116h-18v.116h9zm9-.116c0-5.074-2.67-8.36-3.138-9.041L-.96 20.055l.293.423c.076.109.116.168.142.208.051.078-.005.001-.087-.17a3.924 3.924 0 01-.377-1.617h18zm-3.534-9.574a11.76 11.76 0 01-.321-.409c-.012-.016.076.104.188.326.118.234.24.537.326.89.086.352.113.657.113.883h-18c0 5.234 2.742 8.437 3.653 9.573L13.477 9.325zm.306 1.69c0 1.074-.459 1.669-.61 1.832L-.021.602c-2.303 2.482-4.196 6.091-4.196 10.412h18zm-.942 2.17c-.586.57-1.273.8-1.841.8v-18C6.845-4.014 3.05-2.391.31.265l12.531 12.922zm-1.841.8c-.568 0-1.255-.23-1.841-.8L21.689.265C18.95-2.392 15.155-4.014 11-4.014v18zm-1.841-.8a3.059 3.059 0 01-.942-2.17h18c0-4.282-1.782-8.09-4.528-10.751L9.16 13.186zm-.942-2.17c0-.23.028-.516.103-.83a3.63 3.63 0 01.24-.7c.06-.127.088-.16-.005-.01-.048.078-.103.164-.2.317-.086.134-.214.333-.345.545l15.307 9.471c.243-.394 2.9-3.831 2.9-8.793h-18zm.03-1.041c-.469.681-3.138 3.966-3.138 9.04h18a3.92 3.92 0 01-.377 1.617c-.083.172-.139.249-.088.171.027-.04.067-.1.142-.208.047-.068.196-.281.293-.423L8.247 9.974zm5.862 9.04h-9v.116h18v-.115h-9zm-9 .116v1.971h18v-1.97h-18zm0 1.971v.928h18v-.928h-18zm0 .928c0-.833.14-2.022.746-3.313a8 8 0 012.89-3.318l9.772 15.117c3.574-2.311 4.592-5.95 4.592-8.486h-18zm2.256-5.534A7.063 7.063 0 018.99 15.32a7.877 7.877 0 013.685-.9v18c3.845 0 6.364-2.17 7.222-3.002L7.366 16.495zm14.309 6.925c0-3.504-1.92-5.816-3.198-6.9a9.175 9.175 0 00-2.801-1.625 9.76 9.76 0 00-2.157-.51 11.095 11.095 0 00-1.286-.08h-.034c-.001 0-.002 0-.002 9s-.001 9-.002 9h-.066a8.06 8.06 0 01-.221-.006 6.87 6.87 0 01-.555-.046c-.131-.015-.89-.1-1.829-.442a8.828 8.828 0 01-2.692-1.566c-1.253-1.063-3.157-3.35-3.157-6.825h18zM.034 20.24c.194.242.08.139-.055-.157a2.87 2.87 0 01-.173-.489 2.013 2.013 0 01-.06-.349l17.964-1.157c-.283-4.378-2.154-7.264-3.635-9.11L.034 20.24zm8.694 7.427h4.544v-18H8.728v18zm13.525-8.422a3.237 3.237 0 01-.294 1.106c-.035.071-.037.064.07-.109l.22-.344c.09-.142.218-.34.35-.554L7.292 9.874c-.248.4-2.705 3.604-3.002 8.214l17.963 1.157zm.109.462c.5-.726 3.018-3.87 3.018-8.693h-18c0-.271.032-.605.12-.973.086-.366.204-.666.306-.88.093-.196.16-.292.117-.226a63.292 63.292 0 01-.243.356l-.15.219 14.832 10.197zm3.018-8.693c0-3.81-1.573-7.538-4.289-10.17l-12.53 12.92a3.89 3.89 0 01-.891-1.281 3.753 3.753 0 01-.29-1.47h18zM21.091.845C18.461-1.708 14.901-3.204 11-3.204v18c-.792 0-1.722-.336-2.44-1.032L21.092.843zM11-3.204C7.099-3.203 3.539-1.707.909.843l12.53 12.922c-.717.696-1.647 1.032-2.439 1.032v-18zM.909.843c-2.716 2.633-4.29 6.36-4.29 10.171h18c0 .578-.12 1.068-.289 1.47a3.888 3.888 0 01-.89 1.281L.908.843zm-4.29 10.171c0 4.823 2.52 7.967 3.019 8.694L14.471 9.51l-.151-.219a57.5 57.5 0 01-.243-.356c-.043-.066.024.03.117.226a4.45 4.45 0 01.426 1.854h-18zm16.653 1.32H8.728v18h4.544v-18zm-13.544 9v.579h18v-.58h-18zm0 .579a9.214 9.214 0 00.156 1.686 9.632 9.632 0 00.333 1.295l.06.177-.016-.048A8.364 8.364 0 01-.1 23.321a8.787 8.787 0 01-.051-.944h18a9.21 9.21 0 00-.156-1.687 9.653 9.653 0 00-.333-1.294l-.06-.177.016.047c.015.048.053.162.096.315a8.347 8.347 0 01.266 1.387c.028.252.051.572.051.945h-18zm2.855 6.925c.253.245 2.655 2.77 6.743 2.77v-18c1.491 0 2.96.403 4.242 1.15 1.025.596 1.72 1.327 1.545 1.158L2.583 28.838zm6.743 2.77h3.348v-18H9.326v18zm3.348 0c2.18 0 3.797-.794 4.166-.974a9.946 9.946 0 002.578-1.796L6.886 15.916a8.054 8.054 0 012.1-1.478 8.067 8.067 0 011.142-.45 8.628 8.628 0 012.545-.38v18zm6.744-2.77c.174-.17 2.973-2.626 2.973-6.925h-18c0-1.607.464-3.153 1.272-4.46.637-1.03 1.409-1.717 1.224-1.537l12.53 12.922zm2.973-6.925v-.58h-18v.58h18zm-9-9.58h-.12v18h.12v-18z" fill="#FDD80F" mask="url(#a)"/></svg>