<svg id="Layer_1" data-name="Layer 1" xmlns="http://www.w3.org/2000/svg" viewBox="0 0 60 60"><defs><style>.cls-1{fill:#6165ad;}</style></defs><path class="cls-1" d="M51.16,31.48a.85.85,0,0,0,0-.24,3.49,3.49,0,0,0-3.43-2.9,3.33,3.33,0,0,0-.78.09,3.51,3.51,0,0,0-3.36-2.5,3.41,3.41,0,0,0-1.38.29,3.49,3.49,0,0,0-4.4-1.65v-6a4,4,0,0,0-.94-2.91,3.5,3.5,0,0,0-1.81-1V12.07a3,3,0,0,0-3-3H11.63a3,3,0,0,0-3,3V47.93a3,3,0,0,0,3,3H32.2a1.19,1.19,0,0,0,.37-.06,1.1,1.1,0,0,0,.66-1.41C30,40.38,25.38,35.81,24.54,35a1.21,1.21,0,0,0-.16-.16,1.77,1.77,0,0,1-.7-1.41,1.82,1.82,0,0,1,3.12-1.28l.09.09L30.4,35a1.1,1.1,0,0,0,1.78-.86V18.79a2.56,2.56,0,0,1,.48-1.69,1.57,1.57,0,0,1,1.21-.42,1.73,1.73,0,0,1,1.31.43,1.9,1.9,0,0,1,.39,1.29s0,.07,0,.11v8.94a1.13,1.13,0,0,0,.82,1.06,1.1,1.1,0,0,0,.9-.12,1.07,1.07,0,0,0,.5-.77,1.29,1.29,0,0,1,2.57.13v0a1.16,1.16,0,0,0,.31.81,1.21,1.21,0,0,0,.8.38l.21,0a1.09,1.09,0,0,0,.9-.4,1.28,1.28,0,0,1,1-.47,1.3,1.3,0,0,1,1.3,1.29,1.92,1.92,0,0,1,0,.3,1.38,1.38,0,0,0,.06.7,1.08,1.08,0,0,0,.78.84,1.09,1.09,0,0,0,1.1-.3,1.27,1.27,0,0,1,.94-.42A1.29,1.29,0,0,1,49,31.71a1.29,1.29,0,0,0,0,.19c.12,1.38.73,10.14-2.4,17.46a1.1,1.1,0,1,0,2,.86C52.23,41.77,51.21,31.89,51.16,31.48ZM32.81,14.6a3.45,3.45,0,0,0-1.78,1A4.64,4.64,0,0,0,30,18.88v13l-1.67-1.33a4,4,0,1,0-5.43,5.91l.09.09s4.37,3.9,7.63,12.11h-19a.76.76,0,0,1-.76-.76V12.07a.76.76,0,0,1,.76-.76H32.05a.76.76,0,0,1,.76.76Z"/><path class="cls-1" d="M27.21,14.63H14a1.1,1.1,0,0,0,0,2.2h13.2a1.1,1.1,0,0,0,0-2.2Z"/><path class="cls-1" d="M27.21,19.34H14a1.1,1.1,0,0,0,0,2.2h13.2a1.1,1.1,0,0,0,0-2.2Z"/><path class="cls-1" d="M27.21,24.05H14a1.1,1.1,0,1,0,0,2.2h13.2a1.1,1.1,0,0,0,0-2.2Z"/><path class="cls-1" d="M14,31h6a1.1,1.1,0,1,0,0-2.2H14A1.1,1.1,0,1,0,14,31Z"/><path class="cls-1" d="M14,35.67h5.4a1.1,1.1,0,0,0,0-2.2H14a1.1,1.1,0,1,0,0,2.2Z"/><path class="cls-1" d="M12.91,39.28a1.1,1.1,0,0,0,1.1,1.1h8.52a1.1,1.1,0,0,0,0-2.2H14A1.1,1.1,0,0,0,12.91,39.28Z"/><path class="cls-1" d="M12.91,44a1.1,1.1,0,0,0,1.1,1.1H25.42a1.1,1.1,0,1,0,0-2.2H14A1.1,1.1,0,0,0,12.91,44Z"/></svg>