<svg id="Layer_1" data-name="Layer 1" xmlns="http://www.w3.org/2000/svg" viewBox="0 0 60 60"><defs><style>.cls-1{fill:none;stroke:#6165ad;stroke-linecap:round;stroke-linejoin:round;stroke-width:2.2px;}</style></defs><circle class="cls-1" cx="30" cy="33" r="6"/><path class="cls-1" d="M22.8,46.2V51H37.2v0H42V46.2a6,6,0,0,0-6-6H24a6,6,0,0,0-6,6V51h4.8Z"/><rect class="cls-1" x="41" y="32.95" width="6" height="0.1"/><circle class="cls-1" cx="50.5" cy="33" r="3.5"/><rect class="cls-1" x="13" y="32.95" width="6" height="0.1"/><circle class="cls-1" cx="9.5" cy="33" r="3.5"/><rect class="cls-1" x="36.9" y="23.05" width="6" height="0.1" transform="translate(-4.64 35) rotate(-45.02)"/><path class="cls-1" d="M47,16A3.5,3.5,0,1,1,42,16,3.49,3.49,0,0,1,47,16Z"/><rect class="cls-1" x="29.95" y="16" width="0.1" height="6"/><circle class="cls-1" cx="30" cy="12.5" r="3.5"/><rect class="cls-1" x="20.05" y="20.1" width="0.1" height="6" transform="translate(-10.45 20.98) rotate(-45.01)"/><path class="cls-1" d="M13,16A3.5,3.5,0,1,1,13,21,3.49,3.49,0,0,1,13,16Z"/></svg>