<svg id="Layer_1" data-name="Layer 1" xmlns="http://www.w3.org/2000/svg" viewBox="0 0 60 60"><defs><style>.cls-1{fill:#6165ad;}</style></defs><path class="cls-1" d="M38.47,28s-2.14-2.11-2.13-2.13l-4.83,4.83V15.23h-3V30.74l-4.91-4.91S21.43,28,21.45,28L30,36.47Z"/><path class="cls-1" d="M30,7.32A22.68,22.68,0,1,0,52.68,30,22.67,22.67,0,0,0,30,7.32M43.91,43.91a19.67,19.67,0,0,1-32-6.25A19.66,19.66,0,0,1,22.35,11.88,19.66,19.66,0,0,1,48.12,22.35a19.66,19.66,0,0,1-4.21,21.56"/><polygon class="cls-1" points="37.24 40.72 22.67 40.72 22.67 37.68 19.64 37.68 19.64 40.72 19.64 43.73 21.16 43.73 38.76 43.73 40.28 43.74 40.28 40.72 40.28 40.71 40.28 37.68 37.24 37.68 37.24 40.72"/></svg>