<svg id="Layer_1" data-name="Layer 1" xmlns="http://www.w3.org/2000/svg" viewBox="0 0 60 60"><defs><style>.cls-1{fill:none;stroke:#6165ad;stroke-linecap:round;stroke-linejoin:round;stroke-width:2.5px;}</style></defs><path class="cls-1" d="M45.45,14.55a22.3,22.3,0,0,1,2,2.26A22.3,22.3,0,0,0,45.45,14.55Z"/><path class="cls-1" d="M44.72,46.15h0a21.85,21.85,0,0,0,2.79-29.22,21.85,21.85,0,0,1-2.79,29.22Z"/><path class="cls-1" d="M13.05,43.78a21.72,21.72,0,0,0,2.23,2.37A21.72,21.72,0,0,1,13.05,43.78Z"/><path class="cls-1" d="M47.42,16.81l.09.12Z"/><path class="cls-1" d="M8.15,30a22,22,0,0,0,7.13,16.15,15.92,15.92,0,0,1,29.44,0,21.85,21.85,0,0,0,2.79-29.22l-.09-.12a22.3,22.3,0,0,0-2-2.26A21.85,21.85,0,0,0,8.15,30Zm30-1.9A8.19,8.19,0,1,1,30,19.9,8.19,8.19,0,0,1,38.19,28.1Z"/><path class="cls-1" d="M8.15,30a21.85,21.85,0,0,1,37.3-15.45,21.85,21.85,0,0,0-32.4,29.23A21.75,21.75,0,0,1,8.15,30Z"/><path class="cls-1" d="M30,51.85a21.79,21.79,0,0,1-14.72-5.7,21.86,21.86,0,0,0,29.44,0A21.79,21.79,0,0,1,30,51.85Z"/><path class="cls-1" d="M44.72,46.15a15.92,15.92,0,0,0-29.44,0,21.86,21.86,0,0,0,29.44,0Z"/><path class="cls-1" d="M21.81,28.1A8.19,8.19,0,1,0,30,19.9,8.19,8.19,0,0,0,21.81,28.1Z"/></svg>