<svg xmlns="http://www.w3.org/2000/svg" xmlns:xlink="http://www.w3.org/1999/xlink" height="26" width="26" fill="none"><defs><linearGradient id="a"><stop offset="0" stop-color="#fec91e"/><stop offset=".494" stop-color="#ef0011" stop-opacity=".991"/><stop offset="1" stop-color="#be00a5"/></linearGradient><linearGradient gradientUnits="userSpaceOnUse" y2="2.318" x2="23.604" y1="23.741" x1="2.727" id="b" xlink:href="#a"/></defs><path d="M13 .47c-3.403 0-3.852.037-5.188.098-1.334.06-2.238.229-3.035.538-.824.32-1.506.772-2.202 1.469-.697.696-1.149 1.378-1.469 2.202-.31.797-.477 1.701-.538 3.035C.507 9.148.47 9.597.47 13c0 3.403.037 3.852.098 5.188.06 1.334.229 2.238.538 3.035.32.824.772 1.506 1.469 2.202.696.697 1.378 1.149 2.202 1.469.797.31 1.701.477 3.035.538 1.336.061 1.785.098 5.188.098 3.403 0 3.852-.037 5.188-.098 1.334-.06 2.238-.229 3.035-.538.824-.32 1.506-.772 2.202-1.469.697-.696 1.149-1.378 1.469-2.202.31-.797.477-1.701.538-3.035.061-1.336.098-1.785.098-5.188 0-3.403-.037-3.852-.098-5.188-.06-1.334-.229-2.238-.538-3.035-.32-.824-.772-1.506-1.469-2.202-.696-.697-1.378-1.149-2.202-1.469-.797-.31-1.701-.477-3.035-.538C16.852.507 16.403.47 13 .47zm0 2.251c3.346 0 3.72.038 5.041.098 1.222.056 1.908.22 2.35.392.585.227.98.54 1.42.979.438.438.75.834.978 1.42.172.44.336 1.127.392 2.349.06 1.32.098 1.695.098 5.041s-.038 3.72-.098 5.041c-.056 1.222-.22 1.908-.392 2.35-.227.585-.54.98-.979 1.42-.438.438-.834.75-1.42.978-.44.172-1.127.336-2.349.392-1.32.06-1.695.098-5.041.098s-3.72-.038-5.041-.098c-1.222-.056-1.908-.22-2.35-.392-.585-.227-.98-.54-1.42-.979-.438-.438-.75-.834-.978-1.42-.172-.44-.336-1.127-.392-2.349-.06-1.32-.098-1.695-.098-5.041s.038-3.72.098-5.041c.056-1.222.22-1.908.392-2.35.227-.585.54-.98.979-1.42.438-.438.834-.75 1.42-.978.44-.172 1.127-.336 2.349-.392 1.32-.06 1.695-.098 5.041-.098zm6.706 2.105c-.83 0-1.518.638-1.518 1.468s.687 1.518 1.518 1.518c.83 0 1.468-.687 1.468-1.518 0-.83-.638-1.468-1.468-1.468zM13 6.588A6.396 6.396 0 006.588 13 6.396 6.396 0 0013 19.412 6.396 6.396 0 0019.412 13 6.396 6.396 0 0013 6.588zm0 2.252A4.149 4.149 0 0117.16 13 4.149 4.149 0 0113 17.16 4.149 4.149 0 018.84 13 4.149 4.149 0 0113 8.84z" fill="url(#b)"/></svg>