<svg id="Layer_1" data-name="Layer 1" xmlns="http://www.w3.org/2000/svg" viewBox="0 0 60 60"><defs><style>.cls-1,.cls-2{fill:none;stroke:#6165ad;stroke-linecap:round;stroke-linejoin:round;}.cls-1{stroke-width:2.5px;}.cls-2{stroke-width:2.09px;}</style></defs><line class="cls-1" x1="31.11" y1="16.69" x2="21.13" y2="16.69"/><path class="cls-1" d="M26.64,33.59H46a2.89,2.89,0,0,0,2.86-2.45l2.73-12a2.12,2.12,0,0,0-2.09-2.45H39.06"/><path class="cls-1" d="M8.39,10.8h5.44A1.59,1.59,0,0,1,15.37,12l4.21,18.24"/><polyline class="cls-1" points="19.35 29.31 21.89 39.3 21.98 39.3"/><path class="cls-1" d="M28.4,46.15a3.06,3.06,0,1,1-3.06-3.06A3.06,3.06,0,0,1,28.4,46.15Z"/><path class="cls-1" d="M45.65,46.15a3.06,3.06,0,1,1-3.06-3.06A3.06,3.06,0,0,1,45.65,46.15Z"/><line class="cls-1" x1="21.98" y1="39.3" x2="45.65" y2="39.3"/><line class="cls-2" x1="35.05" y1="14.9" x2="35.05" y2="26.32"/><line class="cls-1" x1="31.03" y1="22.39" x2="35.02" y2="27.18"/><line class="cls-1" x1="39.01" y1="22.39" x2="35.02" y2="27.18"/></svg>