<?xml version="1.0" encoding="UTF-8" standalone="no"?>
<svg
   xmlns:dc="http://purl.org/dc/elements/1.1/"
   xmlns:cc="http://creativecommons.org/ns#"
   xmlns:rdf="http://www.w3.org/1999/02/22-rdf-syntax-ns#"
   xmlns:svg="http://www.w3.org/2000/svg"
   xmlns="http://www.w3.org/2000/svg"
   xmlns:xlink="http://www.w3.org/1999/xlink"
   style="fill:none"
   id="svg4"
   version="1.1"
   viewBox="0 0 26 26"
   height="26"
   width="26">
  <metadata
     id="metadata10">
    <rdf:RDF>
      <cc:Work
         rdf:about="">
        <dc:format>image/svg+xml</dc:format>
        <dc:type
           rdf:resource="http://purl.org/dc/dcmitype/StillImage" />
        <dc:title></dc:title>
      </cc:Work>
    </rdf:RDF>
  </metadata>
  <defs
     id="defs8">
    <linearGradient
       id="linearGradient2002">
      <stop
         id="stop1998"
         offset="0"
         style="stop-color:#fec91e;stop-opacity:1" />
      <stop
         style="stop-color:#ef0011;stop-opacity:0.99056602"
         offset="0.49356726"
         id="stop2006" />
      <stop
         id="stop2000"
         offset="1"
         style="stop-color:#be00a5;stop-opacity:1" />
    </linearGradient>
    <linearGradient
       gradientUnits="userSpaceOnUse"
       y2="2.3179152"
       x2="23.604183"
       y1="23.740854"
       x1="2.7265558"
       id="linearGradient2004"
       xlink:href="#linearGradient2002" />
  </defs>
  <path
     id="path1430"
     style="fill:url(#linearGradient2004);stroke:none;stroke-width:1.56624997;fill-opacity:1"
     d="m 12.999999,0.4700005 c -3.4029707,0 -3.8517517,0.036901 -5.1882027,0.097891 -1.333711,0.060896 -2.237584,0.2286224 -3.034609,0.5383985 -0.823945,0.3201994 -1.50595,0.7717697 -2.20254,1.4683593 -0.696589,0.6965897 -1.148158,1.3785929 -1.468359,2.2025391 -0.309774,0.7970255 -0.47751,1.7008974 -0.538398,3.0346094 -0.06099,1.3364513 -0.09789,1.7852297 -0.09789,5.1882032 0,3.402973 0.0369,3.851752 0.09789,5.188203 0.06088,1.333711 0.228624,2.237584 0.538398,3.03461 0.320201,0.823944 0.77177,1.505949 1.468359,2.202539 0.69659,0.696589 1.378595,1.148158 2.20254,1.468359 0.797025,0.309774 1.700898,0.47751 3.034609,0.538398 1.336451,0.06099 1.785232,0.09789 5.1882027,0.09789 3.402973,0 3.851752,-0.03692 5.188203,-0.09789 1.333711,-0.06088 2.237584,-0.228624 3.034609,-0.538398 0.823945,-0.320201 1.50595,-0.77177 2.20254,-1.468359 0.696589,-0.69659 1.148158,-1.378595 1.468359,-2.202539 0.309775,-0.797026 0.477511,-1.700899 0.538399,-3.03461 0.06099,-1.336443 0.09789,-1.78523 0.09789,-5.188203 0,-3.4029735 -0.0369,-3.8517519 -0.09789,-5.1882032 C 25.371213,6.4780854 25.203485,5.5742135 24.89371,4.777188 24.573509,3.9532418 24.12194,3.2712386 23.425351,2.5746489 22.728761,1.8780593 22.046756,1.426489 21.222811,1.1062896 20.425786,0.7965135 19.521913,0.6287791 18.188202,0.5678911 16.851751,0.5069011 16.402972,0.4700001 12.999999,0.4700005 Z m 0,2.2514844 c 3.345657,0 3.720088,0.037637 5.041367,0.097891 1.221625,0.055743 1.907838,0.220008 2.349375,0.3915625 0.584847,0.227302 0.980963,0.5404534 1.419414,0.9789063 0.438453,0.4384513 0.751605,0.8345653 0.978907,1.419414 0.171553,0.4415353 0.335813,1.1277486 0.391562,2.349375 0.06025,1.3212768 0.09789,1.6957098 0.09789,5.0413673 0,3.345657 -0.03771,3.720088 -0.09789,5.041367 -0.05574,1.221625 -0.220009,1.907838 -0.391562,2.349375 -0.227302,0.584847 -0.540454,0.980963 -0.978907,1.419414 -0.438451,0.438453 -0.834567,0.751604 -1.419414,0.978907 -0.441537,0.171552 -1.12775,0.335813 -2.349375,0.391562 -1.321083,0.06025 -1.695465,0.09789 -5.041367,0.09789 -3.3459017,0 -3.7202837,-0.03772 -5.0413667,-0.09789 -1.221627,-0.05574 -1.90784,-0.22001 -2.349375,-0.391562 -0.584847,-0.227303 -0.980961,-0.540454 -1.419414,-0.978907 -0.438452,-0.438451 -0.751604,-0.834567 -0.978906,-1.419414 -0.171553,-0.441537 -0.335814,-1.12775 -0.391563,-2.349375 -0.06025,-1.321279 -0.09789,-1.69571 -0.09789,-5.041367 0,-3.3456575 0.03764,-3.7200905 0.09789,-5.0413673 0.05574,-1.2216264 0.22001,-1.9078397 0.391563,-2.349375 0.227302,-0.5848487 0.540454,-0.9809627 0.978906,-1.419414 0.438453,-0.4384529 0.834567,-0.7516043 1.419414,-0.9789063 0.441535,-0.1715545 1.127748,-0.335815 2.349375,-0.3915625 1.321279,-0.060254 1.69571,-0.097891 5.0413667,-0.097891 z m 6.705508,2.1046484 c -0.830407,0 -1.517305,0.6379524 -1.517305,1.4683594 0,0.8304054 0.686898,1.5173047 1.517305,1.5173047 0.830405,0 1.468359,-0.6868993 1.468359,-1.5173047 0,-0.830407 -0.637954,-1.4683594 -1.468359,-1.4683594 z m -6.705508,1.7620313 c -3.5535767,0 -6.4118357,2.8582589 -6.4118357,6.4118364 0,3.553577 2.858259,6.411836 6.4118357,6.411836 3.553577,0 6.411836,-2.858259 6.411836,-6.411836 0,-3.5535775 -2.858259,-6.4118364 -6.411836,-6.4118364 z m 0,2.2514843 c 2.306695,0 4.160352,1.8536071 4.160352,4.1603521 0,2.306695 -1.853657,4.160352 -4.160352,4.160352 -2.306695,0 -4.1603517,-1.853657 -4.1603517,-4.160352 0,-2.306745 1.8536567,-4.1603521 4.1603517,-4.1603521 z" />
</svg>
