<svg width="35" height="30" viewBox="0 0 35 30" fill="none" xmlns="http://www.w3.org/2000/svg">
<path d="M1.12359 0.0374669C0.486891 0.0374669 0 0.524358 0 1.16106C0 1.79777 0.486891 2.28466 1.12359 2.28466H5.61798C7.49063 6.8914 9.32584 11.4981 11.161 16.1049L9.47565 20.1873C9.32584 20.5243 9.36329 20.9363 9.58801 21.2359C9.77528 21.5356 10.1498 21.7228 10.5243 21.7228H29.2509C29.8502 21.7228 30.3745 21.1985 30.3745 20.5992C30.3745 20 29.8127 19.4756 29.2509 19.4756H12.1723L13.1461 17.1535L31.1985 15.7303C31.6854 15.6929 32.0974 15.3183 32.2097 14.8689L34.4569 5.13109C34.6067 4.45693 34.0449 3.74532 33.3708 3.74532H8.61423L7.41573 0.711619C7.26591 0.299634 6.81648 0 6.36704 0H1.12359V0.0374669ZM9.5131 6.02997H31.9101L30.1498 13.5955L13.1086 14.9438L9.5131 6.02997ZM14.2322 22.5094C12.1723 22.5094 10.4869 24.1948 10.4869 26.2547C10.4869 28.3146 12.1723 30 14.2322 30C16.2921 30 17.9775 28.3146 17.9775 26.2547C17.9775 24.1948 16.2921 22.5094 14.2322 22.5094ZM25.4682 22.5094C23.4082 22.5094 21.7228 24.1948 21.7228 26.2547C21.7228 28.3146 23.4082 30 25.4682 30C27.5281 30 29.2135 28.3146 29.2135 26.2547C29.2135 24.1948 27.5281 22.5094 25.4682 22.5094ZM14.2322 24.7566C15.0562 24.7566 15.7303 25.4307 15.7303 26.2547C15.7303 27.0787 15.0562 27.7528 14.2322 27.7528C13.4082 27.7528 12.7341 27.0787 12.7341 26.2547C12.7341 25.4307 13.4082 24.7566 14.2322 24.7566ZM25.4682 24.7566C26.2921 24.7566 26.9663 25.4307 26.9663 26.2547C26.9663 27.0787 26.2921 27.7528 25.4682 27.7528C24.6442 27.7528 23.97 27.0787 23.97 26.2547C23.97 25.4307 24.6442 24.7566 25.4682 24.7566Z" fill="#FDD80F"/>
</svg>
