<svg width="19" height="16" fill="none" xmlns="http://www.w3.org/2000/svg"><path d="M18.37 2.494a6.85 6.85 0 01-2.147.575c.767-.46 1.38-1.188 1.649-2.07a8.505 8.505 0 01-2.377.92A3.735 3.735 0 0012.771.73a3.763 3.763 0 00-3.757 3.758c0 .307.038.575.115.843a10.606 10.606 0 01-7.707-3.91 3.81 3.81 0 00-.498 1.878c0 1.304.652 2.454 1.649 3.106a4.087 4.087 0 01-1.687-.46v.038a3.782 3.782 0 002.99 3.68 4.18 4.18 0 01-.997.116c-.23 0-.46-.038-.69-.077a3.718 3.718 0 003.49 2.607 7.56 7.56 0 01-4.64 1.61c-.307 0-.613 0-.882-.038a10.54 10.54 0 005.751 1.687c6.902 0 10.659-5.712 10.659-10.658v-.5a7.859 7.859 0 001.802-1.917z" fill="#fff"/></svg>